<svg width="2707" height="1353" viewBox="0 0 2707 1353" fill="none" xmlns="http://www.w3.org/2000/svg">
<path d="M558.086 683.493C558.692 685.716 561.473 686.454 563.102 684.825L564.568 683.359C565.13 682.797 565.893 682.481 566.689 682.481H577.836C578.553 682.481 579.245 682.737 579.789 683.203L588.007 690.247C588.886 691.001 590.12 691.181 591.178 690.711L601.279 686.222C602.303 685.767 603.496 685.92 604.371 686.621L609.624 690.823C610.156 691.249 610.817 691.481 611.499 691.481H623.038C623.63 691.481 624.209 691.305 624.702 690.977L630.9 686.845C632.09 686.052 633.674 686.209 634.685 687.22L638.304 690.838C638.723 691.257 639.256 691.543 639.837 691.659L651.535 693.998C652.937 694.279 653.946 695.51 653.946 696.94V701.218C653.946 702.557 654.834 703.734 656.122 704.102L663.321 706.159C664.045 706.366 664.664 706.837 665.057 707.479L680.143 732.167C680.647 732.992 681.518 733.523 682.482 733.594L720.402 736.403C721.078 736.453 721.717 736.731 722.215 737.191L740.411 753.986C740.763 754.311 741.032 754.716 741.195 755.166L746.766 770.484C746.885 770.813 746.946 771.16 746.946 771.509V791.184C746.946 791.706 746.81 792.219 746.551 792.672L744.672 795.961C743.327 798.314 745.543 801.102 748.138 800.323L753.382 798.75C754.843 798.312 756.4 799.04 757.001 800.442L758.52 803.987C759.281 805.761 761.769 805.834 762.633 804.108C763.108 803.157 764.18 802.664 765.211 802.922L787.088 808.391C787.326 808.451 787.57 808.481 787.816 808.481H794.705C795.782 808.481 796.776 809.058 797.31 809.992L801.582 817.469C802.117 818.404 803.111 818.981 804.187 818.981H816.784C818.075 818.981 819.222 819.807 819.63 821.032L821.262 825.929C821.671 827.154 822.817 827.981 824.108 827.981H848.415C849.642 827.981 850.745 828.728 851.201 829.867L853.446 835.481L857.307 844.49C857.706 845.42 858.547 846.087 859.543 846.263L881.142 850.074C882.496 850.313 883.515 851.443 883.613 852.815L886.369 891.394C886.419 892.096 886.22 892.793 885.808 893.364L867.129 919.227C867.007 919.396 866.869 919.551 866.715 919.691L852.419 932.687C851.294 933.71 851.112 935.413 851.996 936.65L857.387 944.198C857.751 944.707 857.946 945.317 857.946 945.942V962.45C857.946 963.676 857.199 964.779 856.06 965.235L852.332 966.726C851.193 967.182 850.446 968.285 850.446 969.512V1000.74C850.446 1001.53 850.13 1002.3 849.568 1002.86L844.947 1007.48C844.618 1007.81 844.369 1008.21 844.222 1008.65L837.503 1028.81C837.159 1029.84 836.285 1030.61 835.218 1030.81L805.938 1036.39C805.613 1036.45 805.299 1036.56 805.011 1036.73L784.943 1048.2C784.615 1048.38 784.325 1048.63 784.089 1048.93L779.104 1055.16C778.678 1055.69 778.446 1056.35 778.446 1057.03V1085.63C778.446 1086.76 777.804 1087.8 776.788 1088.31L774.105 1089.65C773.088 1090.16 772.446 1091.2 772.446 1092.33V1103.14C772.446 1104.52 771.509 1105.71 770.174 1106.05L762.719 1107.91C761.383 1108.25 760.446 1109.45 760.446 1110.82V1124.39C760.446 1124.78 760.369 1125.17 760.22 1125.53L750.711 1148.62C750.248 1149.75 749.153 1150.48 747.937 1150.48H724.816C724.57 1150.48 724.326 1150.45 724.088 1150.39L720.644 1149.53C717.904 1148.85 715.821 1151.98 717.516 1154.24L729.036 1169.6C729.864 1170.7 729.832 1172.23 728.958 1173.3L717.616 1187.16C717.182 1187.69 716.581 1188.06 715.912 1188.2L691.352 1193.37C689.743 1193.71 688.706 1195.28 689.029 1196.89L692.229 1212.89C692.6 1214.75 691.18 1216.48 689.287 1216.48H685.275C683.181 1216.48 681.731 1218.57 682.466 1220.53L684.964 1227.2C685.27 1228.01 685.206 1228.92 684.789 1229.69L668.719 1259.15C667.992 1260.48 668.374 1262.14 669.609 1263.03L686.049 1274.77C687.38 1275.72 687.704 1277.56 686.777 1278.91L672.474 1299.71C672.13 1300.21 671.946 1300.81 671.946 1301.41V1308C671.946 1308.93 672.382 1309.81 673.124 1310.38L697.013 1328.65C697.3 1328.87 697.544 1329.14 697.735 1329.44L709.577 1348.39C710.826 1350.39 709.39 1352.98 707.033 1352.98H690.56C689.293 1352.98 688.162 1352.18 687.735 1350.99L681.503 1333.54C681.157 1332.57 680.336 1331.84 679.329 1331.62L672.01 1329.99C669.876 1329.52 667.968 1331.41 668.426 1333.55L671.007 1345.6C671.455 1347.69 669.639 1349.56 667.537 1349.18L656.922 1347.25C655.993 1347.08 655.198 1346.48 654.775 1345.64L648.105 1332.3C647.343 1330.77 648.451 1328.98 650.154 1328.98C651.42 1328.98 652.446 1327.95 652.446 1326.69V1319.7C652.446 1318.15 651.278 1316.86 649.745 1316.71L625.148 1314.25C623.614 1314.1 622.446 1312.81 622.446 1311.27V1291.48C622.446 1290.54 622.891 1289.65 623.646 1289.08L626.506 1286.94C627.638 1286.09 628.023 1284.56 627.43 1283.28L620.251 1267.72C619.76 1266.66 618.697 1265.98 617.527 1265.98H614.186C612.267 1265.98 610.841 1264.2 611.258 1262.33L615.907 1241.41C616.22 1240 615.486 1238.57 614.16 1238L607.124 1234.99C606.372 1234.66 605.784 1234.05 605.496 1233.28L596.946 1210.48L589.568 1185.4C589.487 1185.12 589.446 1184.84 589.446 1184.55V1158.94C589.446 1158.32 589.642 1157.71 590.005 1157.2L595.94 1148.89C596.563 1148.02 596.673 1146.88 596.23 1145.9L589.715 1131.57C589.538 1131.18 589.446 1130.76 589.446 1130.33V1077.56C589.446 1077.18 589.373 1076.8 589.232 1076.44L583.629 1062.44C583.508 1062.14 583.437 1061.81 583.419 1061.49L579.033 981.063C578.979 980.073 578.439 979.174 577.59 978.66L522.771 945.48C522.235 945.155 521.813 944.671 521.567 944.095L499.446 892.481L471.847 837.282C471.302 836.193 471.47 834.882 472.272 833.965L479.598 825.593C480.638 824.404 480.578 822.613 479.462 821.496L475.111 817.145C474.385 816.42 474.081 815.374 474.303 814.373L476.757 803.334C476.88 802.777 477.161 802.266 477.564 801.863L480.987 798.44C481.29 798.137 481.524 797.773 481.674 797.372L490.079 774.961C490.317 774.326 490.763 773.791 491.344 773.442L503.928 765.891C504.865 765.33 505.422 764.303 505.383 763.212L503.992 724.263C503.963 723.444 503.6 722.673 502.987 722.128L496.344 716.223C494.282 714.39 495.578 710.981 498.337 710.981H509.748C510.801 710.981 511.778 710.428 512.32 709.524L515.375 704.432C515.744 703.818 516.32 703.356 516.999 703.13L523.384 701.002C524.357 700.677 525.097 699.878 525.346 698.883L527.547 690.078C527.796 689.083 528.535 688.284 529.509 687.96L545.158 682.743C545.674 682.572 546.133 682.263 546.487 681.85L551.263 676.278C552.83 674.45 555.802 675.119 556.435 677.441L558.086 683.493Z" fill="black"/>
<path d="M2645.89 1214.4C2646.78 1215.59 2646.66 1217.26 2645.61 1218.32L2637.19 1226.74C2637.03 1226.9 2636.85 1227.04 2636.66 1227.16L2625.34 1234.24C2625.08 1234.4 2624.85 1234.6 2624.65 1234.83L2616.73 1244.07C2616.23 1244.65 2615.52 1245.02 2614.75 1245.1L2602.01 1246.37C2601.32 1246.44 2600.68 1246.75 2600.19 1247.24L2583.42 1264C2583.11 1264.32 2582.73 1264.56 2582.31 1264.71L2563.47 1271.44C2562.52 1271.78 2561.46 1271.62 2560.66 1271.01L2556.16 1267.64C2556.02 1267.54 2555.87 1267.44 2555.7 1267.36L2552.2 1265.61C2549.6 1264.31 2550.18 1260.44 2553.05 1259.96L2561.54 1258.55C2561.81 1258.5 2562.07 1258.42 2562.32 1258.31L2583.97 1248.2C2584.28 1248.06 2584.57 1247.85 2584.82 1247.61L2590 1242.43C2590.29 1242.13 2590.65 1241.9 2591.04 1241.75L2609.22 1234.76C2609.7 1234.58 2610.12 1234.27 2610.45 1233.88L2616.94 1226.09C2617.27 1225.69 2617.7 1225.38 2618.19 1225.2L2629.02 1221.14C2629.3 1221.03 2629.57 1220.89 2629.81 1220.7L2640.54 1212.36C2641.86 1211.33 2643.77 1211.58 2644.78 1212.92L2645.89 1214.4Z" fill="black"/>
<path d="M2445.68 1208.17C2446.12 1209.52 2445.57 1210.99 2444.34 1211.71L2428.45 1220.98L2408.33 1236.07C2406.55 1237.41 2403.98 1236.4 2403.58 1234.2L2401.71 1223.9C2401.54 1223 2401.8 1222.08 2402.4 1221.39L2410.06 1212.64C2411.11 1211.43 2412.93 1211.27 2414.19 1212.27L2417.8 1215.16C2418.79 1215.95 2420.17 1216.04 2421.24 1215.37L2438.95 1204.48L2440.18 1203.66C2441.82 1202.56 2444.06 1203.33 2444.69 1205.21L2445.68 1208.17Z" fill="black"/>
<path d="M2689.03 1171.19C2689.29 1172.29 2690.14 1173.15 2691.23 1173.43L2694.41 1174.22C2695.08 1174.39 2695.67 1174.78 2696.09 1175.33L2699.52 1179.91C2699.8 1180.29 2700.16 1180.59 2700.58 1180.8L2705.22 1183.12C2707.06 1184.03 2707.45 1186.48 2706 1187.92L2702.33 1191.6C2701.76 1192.16 2701 1192.48 2700.2 1192.48H2689.37C2688.47 1192.48 2687.62 1192.88 2687.05 1193.58L2675 1208.31C2674.64 1208.75 2674.16 1209.08 2673.62 1209.26L2667.82 1211.19C2665.28 1212.04 2662.99 1209.39 2664.19 1207L2664.48 1206.41C2665.06 1205.26 2664.83 1203.86 2663.92 1202.95L2660.57 1199.6C2658.84 1197.88 2659.79 1194.92 2662.2 1194.52L2673.5 1192.64C2674.11 1192.54 2674.68 1192.24 2675.13 1191.8L2681.07 1185.86C2681.63 1185.3 2681.95 1184.53 2681.95 1183.74V1162.89C2681.95 1162.62 2681.99 1162.35 2682.08 1162.09C2682.89 1159.64 2686.41 1159.81 2686.99 1162.32L2689.03 1171.19Z" fill="black"/>
<path d="M2379.82 915.853C2380.23 916.26 2380.75 916.525 2381.33 916.606L2390.68 917.942C2390.86 917.968 2391.03 918.009 2391.2 918.066L2399.3 920.766C2399.73 920.907 2400.18 920.952 2400.62 920.896L2423.95 917.981H2430.96C2433.73 917.981 2435.02 921.414 2432.94 923.238L2426.95 928.481L2418.36 934.612C2417.24 935.415 2416.81 936.884 2417.32 938.167L2419.09 942.58C2419.32 943.166 2419.36 943.81 2419.21 944.422L2417.07 953.002C2416.71 954.431 2417.44 955.907 2418.79 956.487L2425.13 959.201C2426.23 959.674 2426.95 960.759 2426.95 961.959V967.196C2426.95 968.96 2428.46 970.343 2430.22 970.183L2442.82 969.038C2443.23 969 2443.65 969.048 2444.04 969.179L2454.58 972.693C2455.95 973.15 2457.45 972.566 2458.16 971.304L2464.24 960.348C2464.38 960.104 2464.55 959.881 2464.74 959.684L2468.07 956.359C2468.63 955.797 2468.95 955.034 2468.95 954.238V937.223C2468.95 936.428 2469.26 935.665 2469.83 935.102L2472.97 931.958C2473.28 931.644 2473.52 931.264 2473.67 930.845L2478.12 918.391C2479.07 915.737 2482.82 915.737 2483.77 918.391L2488.11 930.545C2488.33 931.153 2488.74 931.674 2489.27 932.032L2491.86 933.76C2492.55 934.22 2493.02 934.945 2493.16 935.763L2494.23 942.199C2494.37 943.017 2494.84 943.742 2495.53 944.202L2502.11 948.59C2502.95 949.146 2503.45 950.083 2503.45 951.086V983.021C2503.45 984.451 2504.46 985.683 2505.86 985.963L2509.35 986.662C2510.35 986.861 2511.17 987.548 2511.55 988.49L2513.65 993.746C2513.85 994.228 2514.16 994.651 2514.56 994.975L2520.53 999.75C2521.12 1000.22 2521.51 1000.89 2521.62 1001.64L2524.23 1018.55C2524.37 1019.45 2524.91 1020.25 2525.7 1020.7L2533.43 1025.12C2534.37 1025.65 2534.95 1026.65 2534.95 1027.72V1029.57C2534.95 1030.16 2535.12 1030.74 2535.45 1031.24L2540.58 1038.93C2540.82 1039.29 2540.98 1039.7 2541.05 1040.14L2543.88 1058.57C2543.93 1058.84 2543.93 1059.12 2543.89 1059.4L2541.09 1081.83C2541 1082.57 2540.63 1083.25 2540.07 1083.74L2531.7 1090.91C2530.92 1091.58 2530.53 1092.6 2530.68 1093.61L2531.69 1100.68C2531.85 1101.78 2531.37 1102.89 2530.46 1103.54L2521.92 1109.64C2521.61 1109.87 2521.34 1110.15 2521.13 1110.47L2511.18 1126.12C2511.02 1126.36 2510.84 1126.58 2510.62 1126.76L2499.53 1136.47C2499.15 1136.81 2498.86 1137.23 2498.68 1137.71L2493.27 1152.58C2493.06 1153.17 2492.67 1153.67 2492.16 1154.02L2474.22 1166.45C2473.72 1166.79 2473.33 1167.29 2473.12 1167.86L2469.68 1177.03C2469.24 1178.2 2468.12 1178.98 2466.87 1178.98H2444.35C2443.76 1178.98 2443.18 1179.16 2442.69 1179.48L2439.59 1181.55C2439.17 1181.83 2438.68 1182 2438.18 1182.05L2404.45 1184.98H2391.92C2389.93 1184.98 2388.49 1183.07 2389.04 1181.16L2390.75 1175.18C2390.88 1174.72 2390.9 1174.24 2390.8 1173.77L2387.95 1159.48L2383.7 1146.74C2383.53 1146.24 2383.5 1145.71 2383.6 1145.2L2385.48 1135.81C2385.92 1133.6 2383.88 1131.72 2381.72 1132.33L2377.11 1133.65C2376.36 1133.86 2375.73 1134.35 2375.34 1135.02L2369.74 1144.62C2368.31 1147.07 2364.6 1146.35 2364.18 1143.55L2361.3 1124.34C2361.09 1122.96 2359.96 1121.9 2358.56 1121.8L2343 1120.6C2342.12 1120.53 2341.45 1119.8 2341.45 1118.93C2341.45 1118.1 2340.84 1117.39 2340.02 1117.27L2313.15 1113.24C2312.1 1113.08 2311.04 1113.49 2310.37 1114.33L2306.35 1119.35C2305.78 1120.07 2304.92 1120.48 2304 1120.48H2291.69C2290.89 1120.48 2290.13 1120.8 2289.57 1121.36L2285.33 1125.6C2284.76 1126.16 2284 1126.48 2283.2 1126.48H2272.65C2271.59 1126.48 2270.61 1127.03 2270.07 1127.94L2267.11 1132.88C2266.69 1133.58 2265.99 1134.08 2265.19 1134.26L2253.98 1136.75C2253.31 1136.9 2252.71 1137.27 2252.29 1137.81L2247.77 1143.46C2247.24 1144.11 2246.47 1144.51 2245.64 1144.57L2226.29 1145.96C2226.06 1145.97 2225.83 1146.02 2225.61 1146.08L2204.2 1152.78C2202.88 1153.19 2201.44 1152.64 2200.73 1151.46L2197.79 1146.56C2197.56 1146.18 2197.25 1145.86 2196.89 1145.6C2195.31 1144.48 2192.95 1142.55 2192.95 1141.48C2192.95 1140.28 2195.95 1134.98 2197.45 1132.48L2201.05 1127.68C2201.61 1126.93 2202.5 1126.48 2203.45 1126.48H2203.78C2205.83 1126.48 2207.28 1124.47 2206.63 1122.53L2203.65 1113.59C2203.52 1113.19 2203.47 1112.76 2203.51 1112.34L2206.34 1084.05C2206.41 1083.36 2206.24 1082.66 2205.85 1082.09L2199.33 1072.31C2198.33 1070.81 2198.87 1068.77 2200.49 1067.96L2201.85 1067.28C2202.83 1066.79 2203.47 1065.8 2203.51 1064.7L2204.86 1024.1C2204.91 1022.6 2206.06 1021.37 2207.56 1021.22L2217.24 1020.25C2218.78 1020.1 2219.95 1018.81 2219.95 1017.27V1016.27C2219.95 1014.92 2220.85 1013.73 2222.16 1013.38L2235.15 1009.83C2235.98 1009.61 2236.66 1009.04 2237.05 1008.28L2239.78 1002.81C2240.45 1001.47 2242 1000.83 2243.41 1001.3L2252.46 1004.32C2253.65 1004.72 2254.97 1004.33 2255.75 1003.35L2259.69 998.432C2260.17 997.822 2260.88 997.426 2261.66 997.33L2281.82 994.809C2283.32 994.622 2284.45 993.345 2284.45 991.832V983.723C2284.45 982.928 2284.76 982.165 2285.33 981.602L2288.51 978.416C2288.8 978.129 2289.02 977.786 2289.18 977.409L2291.32 972.048C2291.71 971.075 2292.58 970.376 2293.61 970.203L2299.66 969.194C2300.48 969.058 2301.21 968.589 2301.67 967.899L2303.35 965.38C2303.73 964.799 2304.31 964.371 2304.98 964.17L2317.37 960.452C2318.35 960.158 2319.12 959.386 2319.4 958.403L2321.67 950.451C2321.85 949.822 2322.23 949.268 2322.75 948.875L2327.78 945.109C2327.89 945.023 2328 944.93 2328.1 944.83L2330.22 942.709C2330.69 942.237 2331.31 941.936 2331.97 941.853L2341.11 940.711C2342.23 940.57 2343.34 941.078 2343.97 942.023L2347.28 946.985C2348.2 948.363 2350.06 948.736 2351.44 947.817L2357.36 943.874C2357.74 943.615 2358.19 943.451 2358.65 943.393L2367.67 942.265C2369.02 942.097 2370.08 941.052 2370.27 939.712L2371.2 933.198C2371.35 932.135 2372.06 931.235 2373.06 930.837L2376.26 929.554C2377.76 928.955 2378.52 927.279 2377.97 925.759L2375.43 918.631C2374.47 915.956 2377.81 913.845 2379.82 915.853Z" fill="black"/>
<path d="M2375.87 1163.13C2377.27 1164.89 2376.32 1167.51 2374.11 1167.95L2372.11 1168.35C2371.67 1168.44 2371.22 1168.42 2370.79 1168.32L2370.59 1168.27C2368.32 1167.7 2367.54 1164.88 2369.19 1163.23L2370.58 1161.85C2371.84 1160.59 2373.92 1160.7 2375.04 1162.1L2375.87 1163.13Z" fill="black"/>
<path fill-rule="evenodd" clip-rule="evenodd" d="M1868.36 43.1546C1868.75 43.3694 1869.18 43.496 1869.62 43.5255L1910.77 46.2693C1912.5 46.3841 1913.77 47.9232 1913.55 49.6348L1912.65 56.8876C1912.52 57.8829 1911.91 58.7502 1911.01 59.1988L1898.5 65.4539C1897.82 65.7926 1897.3 66.3748 1897.03 67.0838L1896 69.8262C1895 72.4974 1897.94 74.927 1900.38 73.4394L1917.37 63.0579C1918.79 62.189 1920.65 62.6453 1921.5 64.0743L1923.57 67.5243C1924.11 68.4279 1925.09 68.9808 1926.14 68.9808H1956.2C1957 68.9808 1957.76 69.2968 1958.33 69.8595L1961.13 72.6636C1961.66 73.1895 1962.36 73.5013 1963.1 73.5385L1990.96 74.9313C1991.6 74.9634 1992.24 74.7881 1992.77 74.4312L1999.73 69.7947C2000.5 69.2811 2001.46 69.152 2002.34 69.4448L2008.4 71.4647C2009.36 71.7865 2010.43 71.5969 2011.22 70.9612L2015.35 67.6582C2016.54 66.7032 2018.26 66.7985 2019.35 67.8794L2030.74 79.2707C2030.88 79.4104 2031.03 79.536 2031.19 79.6456L2043.69 87.9769C2044.18 88.3055 2044.76 88.4808 2045.35 88.4808H2061.59C2062.15 88.4808 2062.7 88.3228 2063.18 88.0248L2071.86 82.5999C2073.28 81.7105 2075.15 82.1614 2076.02 83.6005L2077.92 86.7727C2078.54 87.8077 2079.72 88.3698 2080.92 88.1991L2099.74 85.5109C2099.88 85.4908 2100.02 85.4808 2100.16 85.4808H2116.45C2118.1 85.4808 2119.45 84.1376 2119.45 82.4808V81.4808C2119.45 80.2697 2118.72 79.1774 2117.6 78.7115L2103.15 72.6908C2102.12 72.2609 2101.45 71.2526 2101.45 70.1346C2101.45 68.1586 2103.46 66.8184 2105.28 67.5784L2119 73.2957C2119.3 73.4183 2119.61 73.4932 2119.93 73.5177L2138.08 74.9138C2138.64 74.9575 2139.19 75.1626 2139.65 75.5049L2144.15 78.8808C2144.67 79.2702 2145.3 79.4808 2145.95 79.4808H2170.7C2171.5 79.4808 2172.26 79.7968 2172.83 80.3595L2180.07 87.6021C2180.63 88.1647 2181.39 88.4808 2182.19 88.4808H2192.59C2193.73 88.4808 2194.77 89.1228 2195.28 90.1391L2196.4 92.3857C2197.01 93.617 2198.39 94.2713 2199.73 93.9726L2210.95 91.4808L2222.95 89.9808H2248.48C2249.4 89.9808 2250.28 90.4082 2250.85 91.1389L2259.55 102.323C2260.11 103.053 2260.99 103.481 2261.91 103.481H2329.7C2330.5 103.481 2331.26 103.797 2331.83 104.359L2336.92 109.452C2337.83 110.365 2339.23 110.593 2340.37 110.001C2343.58 108.343 2347.97 105.961 2348.95 104.981C2350.15 103.781 2355.45 103.481 2357.95 103.481L2400.71 102.055C2402.04 102.011 2403.23 102.845 2403.65 104.105L2405.26 108.929C2405.67 110.154 2406.82 110.981 2408.11 110.981H2428.89C2429.58 110.981 2430.24 111.213 2430.77 111.638L2436.85 116.507C2437.24 116.818 2437.7 117.027 2438.19 117.116L2453.52 119.904C2453.8 119.955 2454.08 120.045 2454.33 120.172L2459.31 122.664C2459.73 122.872 2460.19 122.981 2460.65 122.981H2482C2482.29 122.981 2482.59 123.025 2482.88 123.113L2500.62 128.572C2501.46 128.831 2502.15 129.448 2502.49 130.258L2506.18 138.854C2506.35 139.267 2506.62 139.634 2506.96 139.93L2508.64 141.4C2511.04 143.497 2508.95 147.39 2505.88 146.552L2502.42 145.609C2502.1 145.524 2501.81 145.39 2501.54 145.211L2497.91 142.792C2497.6 142.586 2497.26 142.44 2496.9 142.36C2492.24 141.329 2483.6 139.482 2482.45 139.481H2468.02C2467.64 139.481 2467.26 139.554 2466.91 139.695L2460.17 142.39C2460.02 142.451 2459.87 142.498 2459.71 142.534L2450.72 144.531C2448.66 144.988 2447.71 147.37 2448.88 149.124L2448.97 149.268C2449.28 149.734 2449.72 150.104 2450.23 150.335L2465.95 157.481L2473.01 161.403C2475.36 162.709 2474.93 166.212 2472.34 166.919L2463.38 169.361C2463.09 169.44 2462.82 169.563 2462.56 169.725L2446.45 179.981L2443.85 181.709C2442.84 182.384 2441.47 182.019 2440.92 180.93C2440.62 180.335 2440.05 179.925 2439.4 179.831L2431.43 178.693C2430.5 178.559 2429.55 178.874 2428.89 179.541L2423.33 185.102C2422.76 185.665 2422 185.981 2421.2 185.981H2415.43C2415.11 185.981 2414.79 186.033 2414.48 186.135L2408.9 187.996C2407.29 188.534 2406.44 190.304 2407.04 191.896L2410.09 200.029C2410.32 200.646 2410.75 201.17 2411.31 201.52L2422.45 208.481L2433.12 216.485C2433.95 217.105 2434.39 218.105 2434.31 219.134L2431.54 252.344C2431.48 253.076 2431.69 253.805 2432.13 254.393L2438.54 262.944C2439.58 264.322 2439.24 266.285 2437.81 267.24L2433.11 270.371C2432.1 271.043 2430.79 271.043 2429.78 270.371L2418.64 262.944C2418.19 262.641 2417.82 262.22 2417.59 261.725L2406.37 237.886C2406.1 237.299 2405.64 236.816 2405.06 236.512L2381.38 223.976C2380.78 223.656 2380.3 223.137 2380.03 222.507L2377.13 215.738C2376.48 214.215 2377.18 212.452 2378.7 211.799L2384.06 209.503C2385.43 208.916 2386.16 207.413 2385.78 205.973L2380.89 187.652C2380.62 186.618 2380.91 185.515 2381.67 184.758L2390.33 176.102C2391.5 174.931 2391.5 173.031 2390.33 171.859L2385.24 166.778C2384.21 165.741 2382.57 165.606 2381.38 166.458L2373.15 172.336C2373.01 172.432 2372.89 172.539 2372.77 172.656L2367.38 178.044C2366.29 179.141 2364.53 179.22 2363.34 178.227L2357.28 173.176C2356.74 172.727 2356.06 172.481 2355.36 172.481H2345.57C2344.85 172.481 2344.14 172.745 2343.6 173.223L2333.25 182.274C2332.73 182.731 2332.38 183.355 2332.27 184.039L2331.1 191.032C2331 191.649 2330.71 192.218 2330.27 192.661L2325.57 197.359C2324.4 198.531 2322.5 198.531 2321.33 197.359L2319.76 195.796C2319.24 195.271 2318.54 194.96 2317.79 194.922L2262.04 192.063C2261.04 192.011 2260.09 192.46 2259.49 193.259L2256.25 197.57C2256.05 197.842 2255.8 198.077 2255.52 198.266L2252.78 200.09C2251.95 200.647 2251.45 201.583 2251.45 202.586V228.039C2251.45 228.95 2251.03 229.812 2250.32 230.381L2247.61 232.552C2245.9 233.919 2246.18 236.599 2248.14 237.578L2254.83 240.925C2255.55 241.281 2256.09 241.905 2256.34 242.66L2258.91 250.376C2259.62 252.491 2262.3 253.125 2263.88 251.548L2267.07 248.359C2267.63 247.797 2268.39 247.481 2269.19 247.481H2285.17C2285.68 247.481 2286.18 247.609 2286.62 247.855C2291.35 250.446 2300.16 254.981 2302.45 254.981C2304.13 254.98 2306.91 253.498 2309.1 252.097C2310.45 251.237 2312.25 251.443 2313.27 252.67L2318.95 259.481L2343.45 283.987C2344.08 284.617 2344.4 285.493 2344.32 286.38L2343.07 300.081C2342.99 300.968 2343.31 301.845 2343.94 302.474L2347.24 305.771C2347.38 305.91 2347.53 306.036 2347.69 306.146L2355.11 311.09C2355.95 311.647 2356.45 312.583 2356.45 313.586V319.634C2356.45 320.49 2356.81 321.306 2357.45 321.876L2369.29 332.401C2369.72 332.78 2370.03 333.272 2370.19 333.819L2372.2 340.853C2372.62 342.342 2374.11 343.262 2375.63 342.977L2393.39 339.647C2395.24 339.301 2396.95 340.717 2396.95 342.596V353.072C2396.95 353.665 2396.77 354.244 2396.44 354.737L2392.76 360.258C2391.79 361.722 2389.77 362.036 2388.39 360.937L2384.06 357.469C2383.66 357.149 2383.18 356.937 2382.68 356.852L2368.34 354.463C2366.73 354.195 2365.63 352.692 2365.86 351.079L2366.79 344.566C2366.89 343.865 2366.74 343.152 2366.37 342.551L2359.45 331.481L2355.1 322.792C2355 322.585 2354.87 322.392 2354.72 322.214C2352.16 319.122 2347.45 313.146 2347.45 311.981C2347.45 310.481 2336.95 302.981 2336.95 301.481V295.223C2336.95 294.428 2336.63 293.665 2336.07 293.102L2319.18 276.214C2319.02 276.059 2318.85 275.921 2318.67 275.804L2312.68 271.993C2310.04 270.312 2306.91 273.294 2308.46 276.012L2314.19 286.03C2314.36 286.328 2314.58 286.595 2314.84 286.819L2323.49 294.229C2324.38 294.992 2324.74 296.203 2324.42 297.331L2322.06 305.577C2321.99 305.845 2321.95 306.122 2321.95 306.401V342.519C2321.95 343.145 2321.75 343.754 2321.39 344.263L2315.14 353.015C2314.69 353.636 2314.03 354.064 2313.28 354.213L2299.74 356.922C2299.54 356.961 2299.35 356.981 2299.15 356.981H2288.05C2286.79 356.981 2285.66 357.77 2285.23 358.956L2279.95 373.481L2277.16 384.633C2277.02 385.187 2277.04 385.768 2277.22 386.31L2278.28 389.473C2278.39 389.809 2278.56 390.122 2278.78 390.399L2290.21 404.683C2290.37 404.881 2290.55 405.058 2290.75 405.209L2301.25 413.081C2302 413.647 2302.45 414.536 2302.45 415.481V430.127C2302.45 431.263 2301.8 432.302 2300.79 432.81L2294.23 436.09C2293.72 436.345 2293.29 436.741 2293 437.23L2291.17 440.281C2290.09 442.074 2287.56 442.244 2286.25 440.612L2283.37 437.014C2283.09 436.663 2282.89 436.253 2282.79 435.815L2278.58 417.563C2278.49 417.179 2278.33 416.815 2278.1 416.494L2271.54 407.316C2271.16 406.774 2270.6 406.377 2269.96 406.186L2258.34 402.699C2256.95 402.283 2256.06 400.935 2256.22 399.495L2257.18 390.891C2257.33 389.485 2256.49 388.161 2255.15 387.714L2245.71 384.567C2244.63 384.208 2243.44 384.488 2242.64 385.292L2236.02 391.906C2235.35 392.582 2234.39 392.895 2233.44 392.75L2219.51 390.607C2217.5 390.297 2216.38 388.119 2217.29 386.3L2218.76 383.354C2220.07 380.743 2217.25 377.995 2214.67 379.361L2197.7 388.349C2197.53 388.436 2197.37 388.54 2197.23 388.657L2192.03 392.813C2190.84 393.764 2190.55 395.454 2191.36 396.745L2196.76 405.383C2197.2 406.084 2197.91 406.573 2198.72 406.735L2211.56 409.303C2212.14 409.419 2212.67 409.704 2213.09 410.123L2215.75 412.78C2216.49 413.525 2217.57 413.824 2218.59 413.569L2222.34 412.632C2222.74 412.532 2223.16 412.516 2223.56 412.583L2229.44 413.563C2230.89 413.804 2231.95 415.056 2231.95 416.522V423.773C2231.95 424.238 2231.84 424.698 2231.63 425.114L2226.91 434.547C2226.34 435.702 2226.56 437.097 2227.48 438.01L2240.78 451.319C2240.89 451.426 2240.99 451.543 2241.08 451.666L2257.06 473.458C2257.32 473.803 2257.49 474.197 2257.58 474.615L2263.24 501.481C2263.37 502.129 2263.29 502.804 2263 503.401L2244.17 542.521C2244.02 542.825 2243.82 543.103 2243.59 543.341L2226.61 560.318C2226.18 560.75 2225.62 561.039 2225.02 561.148L2210.14 563.854C2209.69 563.937 2209.25 564.126 2208.88 564.406L2197.78 572.73C2197.56 572.896 2197.32 573.031 2197.06 573.13L2179.77 579.781C2178.66 580.206 2177.41 579.94 2176.57 579.102L2168.76 571.292C2167.95 570.488 2166.77 570.208 2165.69 570.567L2159.23 572.718C2158.72 572.89 2158.26 573.199 2157.91 573.612L2141.17 593.138C2140.7 593.682 2140.45 594.374 2140.45 595.09V603.119C2140.45 603.985 2140.82 604.808 2141.47 605.377L2164.27 625.325C2164.39 625.429 2164.5 625.541 2164.6 625.662L2178.97 642.912C2179.28 643.286 2179.5 643.729 2179.6 644.204L2183.73 663.452C2183.87 664.118 2183.78 664.813 2183.48 665.422L2178.1 676.169C2178 676.376 2177.87 676.57 2177.72 676.748L2157.55 700.957C2156.42 702.312 2154.37 702.405 2153.12 701.158L2149.73 697.765C2149.54 697.576 2149.38 697.363 2149.25 697.132L2143.81 687.625C2143.57 687.202 2143.23 686.844 2142.82 686.582L2127.57 676.879C2127.16 676.617 2126.82 676.26 2126.58 675.837L2121.4 666.769C2121.1 666.255 2120.66 665.839 2120.13 665.575L2104 657.507C2102.08 656.546 2099.8 657.859 2099.66 660.003L2098.45 679.481L2095.68 698.823C2095.54 699.854 2095.93 700.886 2096.73 701.552L2103.96 707.579C2104.28 707.844 2104.54 708.172 2104.73 708.542L2111.63 722.347C2111.84 722.764 2112.14 723.126 2112.51 723.406L2129.17 735.9C2129.68 736.277 2130.05 736.804 2130.24 737.405L2137.37 760.25C2137.42 760.403 2137.46 760.561 2137.48 760.72L2138.88 770.521C2138.92 770.826 2138.92 771.135 2138.87 771.439L2138.79 771.944C2138.33 774.695 2134.69 775.386 2133.25 772.994L2133.15 772.826C2133.02 772.597 2132.85 772.387 2132.66 772.202L2099.09 740.1C2098.67 739.696 2098.38 739.177 2098.24 738.607L2094.14 720.819C2094.01 720.271 2093.74 719.77 2093.34 719.372L2086.19 712.229C2085.42 711.459 2085.13 710.331 2085.43 709.283L2087.85 700.812C2087.91 700.592 2088 700.38 2088.11 700.179L2094.68 688.364C2095.16 687.498 2095.18 686.451 2094.74 685.565L2089.68 675.44C2089.52 675.136 2089.43 674.811 2089.38 674.473C2088.87 670.295 2087.95 662.284 2087.95 659.981C2087.95 657.805 2083.84 652.999 2081.21 650.257C2080.72 649.751 2080.41 649.098 2080.35 648.399L2079.03 633.934C2078.98 633.314 2078.73 632.727 2078.32 632.254L2071.3 624.057C2070.48 623.109 2069.17 622.763 2067.99 623.19L2053.45 628.481L2053.27 628.55C2050.71 629.575 2048.24 626.89 2049.48 624.423L2052.48 618.415C2053.06 617.26 2052.83 615.865 2051.92 614.952L2044.61 607.647C2044.5 607.536 2044.4 607.417 2044.31 607.29L2032.58 591.171C2032.49 591.044 2032.39 590.925 2032.28 590.814L2014.69 573.222C2014.53 573.062 2014.39 572.884 2014.27 572.691L2008.58 563.601C2007.69 562.166 2005.78 561.756 2004.38 562.695L1998.7 566.477C1998.21 566.805 1997.63 566.981 1997.04 566.981H1986.91C1986.28 566.981 1985.67 567.176 1985.16 567.54L1976.55 573.691C1975.85 574.193 1975.4 574.974 1975.31 575.833L1974.15 587.483C1974.03 588.692 1973.19 589.709 1972.02 590.058L1960.37 593.553C1959.47 593.823 1958.75 594.496 1958.42 595.373L1954.69 605.318C1954.53 605.754 1954.27 606.146 1953.93 606.463L1933.68 625.264C1933.52 625.408 1933.39 625.568 1933.26 625.742L1923.56 639.609C1923.16 640.173 1922.97 640.856 1923.02 641.543L1925.8 680.481C1925.89 681.691 1925.24 682.835 1924.15 683.378L1917.69 686.609C1917.2 686.852 1916.79 687.223 1916.5 687.682L1906.76 702.989C1906.55 703.314 1906.29 703.596 1905.97 703.82L1899.77 708.248C1897.99 709.522 1895.48 708.515 1895.08 706.36L1891.55 687.51C1891.48 687.16 1891.35 686.824 1891.17 686.519L1886.95 679.481L1876.79 664.978C1876.56 664.65 1876.4 664.279 1876.32 663.887L1872.1 644.204C1872 643.729 1871.78 643.286 1871.47 642.912L1857.39 626.008C1857.1 625.661 1856.89 625.253 1856.78 624.815L1853.95 613.481L1850 578.008C1849.75 575.743 1847.17 574.575 1845.3 575.881L1836.64 581.943C1835.39 582.819 1833.68 582.615 1832.67 581.471L1812.48 558.586C1812.13 558.19 1811.89 557.708 1811.79 557.189L1810.83 552.397C1810.6 551.232 1809.7 550.314 1808.54 550.057L1798.6 547.849C1797.58 547.621 1796.74 546.869 1796.41 545.869L1793.08 535.882C1792.7 534.731 1791.66 533.924 1790.45 533.838L1771.45 532.481H1716.91C1716.28 532.481 1715.67 532.285 1715.16 531.922L1706.05 525.414C1705.65 525.129 1705.33 524.752 1705.11 524.314L1700.71 515.511C1700 514.09 1698.31 513.469 1696.85 514.095L1688.95 517.481L1675.66 521.466C1674.61 521.783 1673.46 521.494 1672.68 520.714L1663.45 511.481L1647.22 496.728C1647.04 496.564 1646.84 496.422 1646.62 496.306L1630.27 487.502C1628.74 486.679 1626.84 487.321 1626.12 488.902L1620.85 500.499C1620.31 501.681 1620.59 503.074 1621.55 503.952L1637.64 518.697C1637.84 518.885 1638.07 519.044 1638.32 519.169L1644.05 522.032C1645.61 522.813 1646.18 524.76 1645.28 526.259L1643.65 528.972C1642.94 530.153 1643.13 531.664 1644.1 532.637L1660.72 549.258C1661.48 550.015 1662.58 550.311 1663.62 550.035L1683.67 544.688C1684.18 544.552 1684.64 544.284 1685.02 543.911L1694.29 534.636C1695.92 533.007 1698.7 533.746 1699.31 535.968L1702 545.85C1702.28 546.862 1703.06 547.657 1704.07 547.945L1711.42 550.046C1712.38 550.318 1713.13 551.042 1713.45 551.982L1715.34 557.66C1715.71 558.77 1716.69 559.563 1717.85 559.693L1727.09 560.719C1728.47 560.873 1729.57 561.952 1729.74 563.329L1730.75 571.4C1730.87 572.388 1730.5 573.374 1729.75 574.03L1719.97 582.584C1719.32 583.154 1718.95 583.977 1718.95 584.842V592.216C1718.95 593.305 1718.36 594.309 1717.4 594.838L1706.12 601.105C1705.68 601.351 1705.31 601.707 1705.04 602.137L1698.83 612.071C1698.28 612.948 1697.32 613.481 1696.28 613.481H1689.3C1688.16 613.481 1687.13 614.123 1686.62 615.139L1683.78 620.822C1683.27 621.839 1682.23 622.481 1681.09 622.481H1675.95C1674.74 622.481 1673.64 623.209 1673.18 624.327L1667.16 638.765C1666.72 639.816 1665.73 640.529 1664.59 640.604L1645.07 641.906C1644.35 641.954 1643.66 642.264 1643.15 642.778L1635.74 650.184C1635.23 650.697 1634.55 651.007 1633.82 651.056L1613.57 652.406C1612.85 652.454 1612.16 652.764 1611.65 653.278L1605.83 659.102C1605.26 659.665 1604.5 659.981 1603.7 659.981H1596.88C1595.46 659.981 1594.24 658.987 1593.94 657.599L1588.53 631.859C1588.47 631.608 1588.39 631.365 1588.27 631.135L1581.06 616.708C1580.98 616.557 1580.9 616.412 1580.8 616.276L1564.72 594.36C1564.54 594.109 1564.4 593.83 1564.3 593.535L1558.51 576.183C1558.47 576.048 1558.41 575.917 1558.35 575.79L1552.45 563.981L1545.13 552.27C1545.01 552.078 1544.87 551.9 1544.7 551.739L1533.82 540.859C1533.26 540.297 1532.95 539.534 1532.95 538.738V532.386C1532.95 531.496 1532.55 530.651 1531.87 530.081L1525.21 524.53C1524.42 523.876 1524.02 522.868 1524.15 521.854L1525.2 513.42C1525.35 512.241 1524.79 511.086 1523.77 510.475L1511.95 503.385C1511.02 502.826 1509.86 502.814 1508.92 503.352L1501.92 507.353C1500.75 508.02 1500.17 509.382 1500.5 510.686L1502.69 519.447C1502.86 520.116 1503.25 520.706 1503.8 521.12L1508.03 524.293C1508.62 524.736 1509.03 525.381 1509.17 526.105L1510.35 532.003C1510.41 532.32 1510.53 532.623 1510.69 532.903L1516.05 542.289C1516.31 542.742 1516.45 543.255 1516.45 543.777V559.375C1516.45 560.378 1516.95 561.315 1517.78 561.871L1520.95 563.981L1529.93 569.117C1530.87 569.651 1531.45 570.645 1531.45 571.722V595.523C1531.45 596.443 1531.87 597.313 1532.59 597.882L1551.3 612.58C1552.02 613.149 1552.45 614.018 1552.45 614.939V629.875C1552.45 630.878 1552.95 631.815 1553.78 632.371L1555.91 633.791C1556.57 634.233 1557.03 634.919 1557.19 635.699L1558.02 639.83C1558.27 641.111 1559.33 642.079 1560.63 642.223L1569.95 643.258C1571.16 643.393 1572.16 644.245 1572.5 645.416L1574.63 652.885C1574.83 653.591 1575.29 654.198 1575.91 654.592L1589.62 663.32C1590.71 664.013 1591.24 665.326 1590.92 666.578L1588.91 674.636C1588.63 675.762 1589.02 676.95 1589.92 677.685L1603.54 688.828C1604.4 689.536 1605.59 689.704 1606.62 689.264L1614.75 685.78C1615.21 685.583 1615.71 685.504 1616.2 685.549L1630.55 686.854C1631.43 686.934 1632.31 686.617 1632.94 685.987L1638.57 680.359C1639.13 679.797 1639.89 679.481 1640.69 679.481H1656.68C1658.02 679.481 1659.2 680.369 1659.57 681.657L1661.58 688.69C1661.81 689.511 1661.69 690.394 1661.23 691.116L1644.41 717.747C1644.11 718.226 1643.95 718.782 1643.95 719.349V732.119C1643.95 732.985 1643.57 733.807 1642.92 734.377L1632.42 743.568C1632.11 743.84 1631.86 744.174 1631.68 744.548L1620.45 768.412C1620.13 769.099 1619.55 769.638 1618.85 769.92L1605.42 775.293C1605.1 775.417 1604.82 775.593 1604.56 775.811L1583.35 794.199C1582.77 794.701 1582.4 795.405 1582.33 796.168L1581.07 808.725C1580.99 809.528 1580.59 810.265 1579.96 810.769L1566.43 821.592C1566.11 821.848 1565.85 822.168 1565.66 822.531L1553.4 845.675C1552.83 846.765 1552.97 848.096 1553.78 849.032L1560.61 857C1561.14 857.626 1561.4 858.446 1561.31 859.266L1558.6 885.057C1558.5 885.958 1558.82 886.853 1559.46 887.493L1568 896.03C1568.6 896.635 1568.92 897.469 1568.87 898.323L1565.97 949.082C1565.95 949.347 1565.9 949.608 1565.82 949.86L1564.45 953.981L1561.85 964.383C1561.6 965.378 1560.86 966.177 1559.88 966.501L1547.95 970.481L1537.86 974.804C1537.59 974.921 1537.33 975.078 1537.1 975.271L1517.95 991.481L1513.79 995.641C1512.73 996.697 1512.61 998.368 1513.51 999.562L1515.9 1002.75C1516.26 1003.23 1516.46 1003.8 1516.5 1004.39L1517.91 1029.79C1517.93 1030.25 1517.86 1030.7 1517.68 1031.11L1511.05 1047.04C1510.67 1047.94 1509.88 1048.61 1508.93 1048.82L1498.76 1051.08C1497.65 1051.33 1496.77 1052.18 1496.5 1053.28L1494.07 1062.98C1493.99 1063.31 1493.85 1063.63 1493.66 1063.91L1491.25 1067.52C1491.05 1067.83 1490.9 1068.16 1490.82 1068.51L1486.76 1086.1C1486.56 1086.98 1485.98 1087.71 1485.18 1088.11L1478.56 1091.42C1477.85 1091.78 1477.3 1092.4 1477.05 1093.16L1473.17 1104.81C1473.02 1105.25 1472.77 1105.65 1472.45 1105.98L1446.48 1131.95C1446.13 1132.3 1445.7 1132.56 1445.22 1132.7L1431.84 1136.71C1431.26 1136.89 1430.74 1137.24 1430.36 1137.71L1425.85 1143.35C1425.28 1144.07 1424.42 1144.48 1423.5 1144.48H1388.35C1387.76 1144.48 1387.18 1144.66 1386.69 1144.98L1379.82 1149.56C1378.96 1150.14 1377.88 1150.23 1376.94 1149.81L1366.55 1145.19C1365.56 1144.75 1364.88 1143.81 1364.78 1142.74L1362.05 1114.05C1361.98 1113.36 1361.68 1112.71 1361.18 1112.22L1356.7 1107.74C1356.21 1107.25 1355.91 1106.6 1355.84 1105.92L1354.56 1093.16C1354.49 1092.4 1354.13 1091.7 1353.55 1091.2L1343.47 1082.38C1342.82 1081.81 1342.45 1080.98 1342.45 1080.12V1073.39C1342.45 1072.8 1342.27 1072.22 1341.94 1071.72L1336.89 1064.14C1336.6 1063.71 1336.43 1063.21 1336.39 1062.69L1333.54 1022.85C1333.48 1021.98 1333.05 1021.18 1332.35 1020.66L1328.2 1017.54C1327.71 1017.18 1327.34 1016.67 1327.15 1016.09L1324.84 1009.16C1324.59 1008.4 1324.05 1007.78 1323.33 1007.42L1320.43 1005.97C1319.25 1005.38 1318.59 1004.09 1318.81 1002.8L1319.74 997.206C1319.87 996.422 1319.69 995.617 1319.22 994.969L1313.01 986.263C1312.64 985.754 1312.45 985.145 1312.45 984.519V941.481C1312.45 940.832 1312.66 940.2 1313.05 939.681L1316.95 934.481L1323.75 926.315C1324.2 925.776 1324.45 925.096 1324.45 924.395V906.689C1324.45 906.223 1324.34 905.764 1324.13 905.347L1320.37 897.819C1320.09 897.273 1319.99 896.657 1320.08 896.053L1321.35 887.154C1321.41 886.711 1321.58 886.287 1321.82 885.915L1323.27 883.747C1323.97 882.688 1323.94 881.3 1323.17 880.283L1320.45 876.65C1320.12 876.212 1319.92 875.693 1319.86 875.148L1318.55 862.046C1318.48 861.357 1318.18 860.713 1317.69 860.223L1314.07 856.601C1313.11 855.644 1312.91 854.166 1313.58 852.991L1317.02 846.985C1317.81 845.586 1317.37 843.806 1316 842.952L1306.74 837.162C1306.54 837.041 1306.37 836.9 1306.2 836.739L1291.66 822.191C1291.52 822.051 1291.39 821.898 1291.28 821.734L1285.95 813.736C1285.62 813.244 1285.45 812.665 1285.45 812.072V799.481C1285.45 798.536 1285.89 797.647 1286.65 797.081L1290.25 794.381C1291 793.814 1291.45 792.925 1291.45 791.981V760.835C1291.45 759.699 1290.8 758.66 1289.79 758.152L1287.1 756.81C1286.09 756.302 1285.45 755.263 1285.45 754.127V751.044C1285.45 749.568 1284.37 748.311 1282.91 748.081L1259.48 744.381C1258.02 744.15 1256.95 742.893 1256.95 741.417V738.56C1256.95 737.309 1256.17 736.19 1255 735.751L1245.55 732.209C1245.15 732.059 1244.79 731.824 1244.49 731.521L1241.32 728.359C1240.76 727.797 1240 727.481 1239.2 727.481H1226.45C1225.8 727.481 1225.17 727.691 1224.65 728.081L1220.25 731.381C1219.73 731.77 1219.1 731.981 1218.45 731.981H1211.89C1210.98 731.981 1210.11 732.395 1209.55 733.107L1205.32 738.394C1204.76 739.083 1203.94 739.494 1203.05 739.518L1149.39 740.969C1149.1 740.977 1148.8 741.028 1148.52 741.122L1136.56 745.11C1135.84 745.348 1135.06 745.309 1134.38 745L1106.19 732.313C1105.7 732.095 1105.28 731.753 1104.98 731.321L1082.95 700.481L1068.36 683.248C1067.32 682.018 1067.53 680.166 1068.82 679.199C1070.49 677.95 1070.26 675.386 1068.39 674.455L1053.1 666.81C1052.09 666.302 1051.45 665.263 1051.45 664.127V648.689C1051.45 648.223 1051.55 647.764 1051.76 647.347L1054.3 642.275C1054.4 642.08 1054.47 641.874 1054.53 641.661L1057.29 630.616C1057.39 630.197 1057.59 629.806 1057.86 629.469L1062.57 623.572C1063.13 622.88 1063.35 621.979 1063.17 621.11L1059.15 600.99C1059.02 600.336 1059.11 599.657 1059.41 599.06L1062.62 592.639C1063.13 591.623 1063.02 590.406 1062.33 589.497L1055.8 580.781C1055 579.714 1055 578.247 1055.8 577.181L1063.06 567.498C1063.31 567.157 1063.49 566.765 1063.59 566.349L1066.28 554.213C1066.39 553.732 1066.61 553.285 1066.93 552.911L1074.99 543.518C1075.29 543.165 1075.51 542.746 1075.62 542.294L1078.11 532.319C1078.32 531.47 1078.9 530.755 1079.68 530.364L1083.55 528.428C1084.13 528.138 1084.6 527.667 1084.89 527.086L1094.12 508.639C1094.63 507.623 1095.66 506.981 1096.8 506.981H1103.95C1104.89 506.981 1105.78 506.536 1106.35 505.781L1114.02 495.547C1114.3 495.175 1114.66 494.872 1115.08 494.664L1119.08 492.664C1119.94 492.235 1120.54 491.421 1120.7 490.474L1123.25 475.166C1123.38 474.405 1123.79 473.722 1124.41 473.26L1128.73 470.016C1129.2 469.667 1129.55 469.189 1129.75 468.642L1135.02 454.165C1135.29 453.408 1135.86 452.793 1136.59 452.459L1151.06 445.882C1151.64 445.621 1152.11 445.186 1152.43 444.639L1156.82 436.954C1157.49 435.787 1158.85 435.206 1160.15 435.532L1168.3 437.569C1169.32 437.824 1170.4 437.525 1171.15 436.78L1173.48 434.443C1174.1 433.832 1174.94 433.514 1175.8 433.571L1195.59 434.89C1196.45 434.948 1197.3 434.63 1197.91 434.018L1202.2 429.725C1202.68 429.243 1203.32 428.94 1203.99 428.865L1213.78 427.777C1215.3 427.608 1216.45 426.324 1216.45 424.796V424.481C1216.45 422.824 1217.79 421.481 1219.45 421.481H1236.62C1237.16 421.481 1237.69 421.333 1238.16 421.053L1242.89 418.214C1243.95 417.581 1245.32 418.088 1245.7 419.255C1246.09 420.407 1247.43 420.919 1248.48 420.317L1256.25 415.876C1256.71 415.617 1257.22 415.481 1257.74 415.481H1291.03C1291.3 415.481 1291.58 415.52 1291.85 415.596L1298.47 417.488C1300.28 418.004 1301.17 420.034 1300.33 421.714L1298.18 426.008C1297.72 426.925 1297.77 428.013 1298.29 428.893L1300.74 432.972C1301.45 434.153 1301.26 435.664 1300.29 436.637L1296.1 440.83C1296 440.93 1295.9 441.038 1295.82 441.151L1294.06 443.494C1292.8 445.176 1293.62 447.601 1295.64 448.178L1299.77 449.359C1301.06 449.727 1301.95 450.904 1301.95 452.244V454.481C1301.95 456.138 1303.29 457.481 1304.95 457.481H1321.34C1322.34 457.481 1323.28 457.982 1323.84 458.817L1325.43 461.205C1325.77 461.71 1326.25 462.101 1326.81 462.327L1333.45 464.981L1339.98 468.246C1341.37 468.944 1342 470.595 1341.42 472.044L1341.09 472.867C1340.3 474.837 1341.75 476.981 1343.88 476.981H1364.24C1364.7 476.981 1365.16 477.089 1365.58 477.297L1375.39 482.202C1376.35 482.684 1377.5 482.612 1378.39 482.015L1380.78 480.423C1381.22 480.133 1381.57 479.735 1381.8 479.268L1383.33 476.22C1383.97 474.923 1383.6 473.348 1382.44 472.478L1381.65 471.881C1380.05 470.681 1380.05 468.281 1381.65 467.081L1383.25 465.881C1384 465.314 1384.45 464.425 1384.45 463.481V460.481C1384.45 458.824 1385.79 457.481 1387.45 457.481H1398.49C1399.92 457.481 1401.15 458.49 1401.43 459.892L1402.1 463.274C1402.32 464.329 1403.08 465.191 1404.1 465.531L1424.58 472.359C1424.82 472.44 1425.08 472.489 1425.33 472.506L1446.07 473.889C1446.94 473.947 1447.75 474.383 1448.27 475.082L1451.05 478.781C1451.61 479.536 1452.5 479.981 1453.45 479.981H1459.89C1460.58 479.981 1461.24 479.749 1461.77 479.323L1467.62 474.638C1468.16 474.213 1468.82 473.981 1469.5 473.981H1475.31C1475.73 473.981 1476.14 474.069 1476.53 474.239L1489.45 479.981L1494.38 481.956C1495.83 482.535 1497.48 481.907 1498.18 480.512L1504.15 468.57C1504.35 468.182 1504.62 467.84 1504.96 467.569L1510.96 462.769C1511.59 462.265 1511.99 461.528 1512.07 460.725L1513.42 447.245C1513.44 447.069 1513.44 446.892 1513.43 446.716L1512.08 429.265C1512 428.166 1511.32 427.202 1510.31 426.754L1499.14 421.789C1498.68 421.587 1498.19 421.501 1497.69 421.539L1480.32 422.875C1479.45 422.942 1478.59 422.624 1477.97 422.005L1475.69 419.729C1474.92 418.959 1473.8 418.666 1472.75 418.966L1464.72 421.26C1464.21 421.405 1463.68 421.414 1463.17 421.286L1458.21 420.047C1458.03 420.003 1457.86 419.943 1457.7 419.868L1442.58 412.995C1441.85 412.666 1441.29 412.062 1441.01 411.317L1437.11 400.909C1437 400.625 1436.85 400.359 1436.67 400.12L1427.08 387.793C1426.67 387.267 1426.45 386.619 1426.45 385.951V382.481C1426.45 380.824 1425.1 379.481 1423.45 379.481H1409.95L1399.97 380.589C1398.13 380.794 1396.91 382.609 1397.42 384.395L1399.13 390.359C1399.33 391.08 1399.26 391.853 1398.92 392.524L1398.04 394.29C1397.98 394.417 1397.92 394.548 1397.88 394.683L1395.53 401.722C1395.17 402.8 1395.45 403.988 1396.26 404.792L1400.22 408.753C1400.69 409.225 1400.99 409.84 1401.07 410.502L1401.88 416.977C1402.15 419.111 1400.15 420.825 1398.08 420.234L1393.22 418.843C1392.41 418.612 1391.73 418.052 1391.36 417.3L1387.65 409.884C1387.51 409.617 1387.42 409.331 1387.37 409.036L1384.63 392.556C1384.51 391.861 1384.15 391.23 1383.62 390.771L1375.72 384.005C1374.68 383.109 1374.38 381.617 1374.99 380.386L1375.88 378.606C1376.51 377.361 1376.19 375.851 1375.12 374.96L1369.03 369.88C1368.34 369.31 1367.95 368.466 1367.95 367.576V360.481C1367.95 359.27 1367.22 358.177 1366.1 357.712L1351.79 351.75C1350.67 351.284 1349.95 350.192 1349.95 348.981V347.484C1349.95 346.035 1348.91 344.792 1347.48 344.533L1334.7 342.209C1333.9 342.063 1333.19 341.598 1332.74 340.921L1328.34 334.317C1327.78 333.482 1326.84 332.981 1325.84 332.981H1317.36C1314.99 332.981 1313.81 335.841 1315.48 337.515C1316.34 338.376 1316.51 339.714 1315.88 340.759L1314.02 343.853C1313.16 345.295 1313.65 347.167 1315.11 348.001L1321.83 351.846C1322.54 352.251 1323.06 352.929 1323.26 353.723L1325.45 362.486C1325.75 363.688 1326.76 364.582 1327.99 364.736L1336.92 365.853C1337.59 365.936 1338.2 366.237 1338.67 366.709L1344.95 372.98C1345.27 373.309 1345.68 373.557 1346.12 373.705L1353.27 376.088C1354.02 376.339 1354.65 376.881 1355 377.592L1356.74 381.059C1357.66 382.899 1356.1 385.006 1354.07 384.668C1352.2 384.356 1350.67 386.148 1351.27 387.947L1353.86 395.722C1354.22 396.8 1353.94 397.988 1353.14 398.792L1348.56 403.37C1347.03 404.892 1344.5 403.325 1345.18 401.282C1345.35 400.769 1345.31 400.209 1345.07 399.725L1342.45 394.481L1336.95 384.854C1336.62 384.287 1336.12 383.842 1335.52 383.585L1326.72 379.811C1326.21 379.595 1325.78 379.244 1325.46 378.798L1318.68 369.306C1318.52 369.09 1318.34 368.896 1318.14 368.728L1302.51 355.946C1302.14 355.64 1301.85 355.249 1301.66 354.806L1298.03 346.349C1297.66 345.487 1296.91 344.847 1296 344.62L1286.92 342.35C1286 342.118 1285.01 342.343 1284.28 342.956L1277.59 348.527C1276.87 349.128 1275.91 349.357 1275 349.146L1257.73 345.162C1257.22 345.043 1256.68 345.063 1256.18 345.218L1238.79 350.567C1237.94 350.829 1237.25 351.457 1236.9 352.28L1230.6 367.406C1230.2 368.382 1229.3 369.072 1228.26 369.222L1221 370.258C1220.03 370.398 1219.18 371.006 1218.74 371.887L1216.85 375.668C1216.59 376.198 1216.17 376.638 1215.66 376.931L1207.46 381.617C1206.52 382.151 1205.95 383.145 1205.95 384.222V397.04C1205.95 397.332 1205.9 397.623 1205.82 397.902L1201.82 411.239C1201.58 412.031 1201.03 412.691 1200.29 413.06L1187.08 419.664C1186.66 419.872 1186.2 419.981 1185.74 419.981H1165.19C1164.39 419.981 1163.63 420.297 1163.07 420.859L1160.53 423.393C1159.2 424.732 1156.97 424.511 1155.92 422.936L1149.84 413.817C1149.28 412.982 1148.34 412.481 1147.34 412.481H1140.61C1139.32 412.481 1138.17 411.654 1137.76 410.429L1135.67 404.153C1135.52 403.711 1135.27 403.309 1134.95 402.98L1131.34 399.379C1130.26 398.298 1130.17 396.578 1131.12 395.384L1134.79 390.802C1135.21 390.271 1135.45 389.61 1135.45 388.928V370.729C1135.45 370.564 1135.46 370.399 1135.49 370.236L1138.03 354.988C1138.27 353.541 1139.52 352.481 1140.99 352.481H1150.45L1169.95 350.981H1187.31C1187.73 350.981 1188.14 350.893 1188.53 350.722L1198.96 346.087C1200.37 345.46 1201.07 343.862 1200.58 342.397L1199.56 339.318C1198.98 337.58 1200.12 335.742 1201.93 335.483C1204.52 335.113 1205.37 331.797 1203.28 330.228L1198.15 326.381C1197.39 325.814 1196.95 324.925 1196.95 323.981V319.959C1196.95 318.759 1196.23 317.674 1195.13 317.201L1187.14 313.777C1186.68 313.582 1186.28 313.279 1185.98 312.894L1182.12 308.077C1181.17 306.884 1181.26 305.163 1182.34 304.082L1185.2 301.229C1185.97 300.459 1187.1 300.166 1188.14 300.466L1193.12 301.888C1195.04 302.436 1196.95 300.997 1196.95 299.004V296.629C1196.95 295.116 1198.07 293.84 1199.57 293.652L1208.7 292.512C1208.86 292.491 1209.03 292.457 1209.19 292.409L1222.7 288.353C1223.5 288.116 1224.16 287.561 1224.53 286.821L1229.43 277.021C1229.76 276.352 1230.33 275.832 1231.03 275.563L1248.51 268.841C1249.12 268.607 1249.63 268.182 1249.98 267.631L1256.56 257.092C1256.82 256.69 1257.16 256.354 1257.56 256.11L1264.06 252.21C1264.32 252.058 1264.59 251.944 1264.88 251.872L1276.45 248.981L1280.09 248.251C1282.03 247.863 1283.07 245.737 1282.19 243.968L1281.62 242.822C1281.19 241.978 1281.19 240.984 1281.62 240.139L1285.13 233.114C1285.34 232.698 1285.45 232.238 1285.45 231.773V217.722C1285.45 216.645 1286.02 215.651 1286.96 215.117L1291.46 212.546C1293.46 211.403 1295.95 212.847 1295.95 215.15V230.273C1295.95 230.738 1295.84 231.198 1295.63 231.614L1292.18 238.508C1291.72 239.425 1291.77 240.513 1292.29 241.393L1295.07 246.024C1295.61 246.928 1296.59 247.481 1297.64 247.481H1314.6C1315.98 247.481 1317.18 248.418 1317.51 249.753L1317.63 250.219C1318.07 251.957 1319.92 252.929 1321.59 252.3L1330.24 249.059C1330.38 249.007 1330.51 248.945 1330.64 248.873L1343.95 241.481L1348.88 239.013C1349.57 238.671 1350.35 238.603 1351.09 238.823L1363.81 242.639C1364.54 242.858 1365.33 242.79 1366.01 242.449L1372.96 238.972C1373.6 238.655 1374.1 238.123 1374.38 237.471L1378.3 228.33C1378.4 228.098 1378.47 227.854 1378.5 227.605L1381.32 209.273C1381.4 208.754 1381.62 208.265 1381.95 207.855L1385.21 203.78C1386.37 202.321 1388.58 202.273 1389.81 203.679L1392.69 206.972C1394.51 209.057 1397.95 207.767 1397.95 204.996V202.85C1397.95 202.605 1397.98 202.36 1398.04 202.122L1399.03 198.162C1399.29 197.122 1400.08 196.299 1401.11 196.005L1409.95 193.481L1421.39 189.665C1422.62 189.256 1423.45 188.11 1423.45 186.818V185.458C1423.45 183.465 1421.54 182.026 1419.62 182.573L1413.93 184.199C1413.29 184.382 1412.61 184.347 1411.99 184.1L1406.7 181.981C1405.9 181.663 1405.01 181.7 1404.24 182.083L1394.44 186.984C1393.8 187.305 1393.06 187.385 1392.37 187.212L1383.1 184.895C1382.08 184.638 1381.26 183.86 1380.96 182.846L1377.16 170.205C1377.02 169.73 1376.76 169.297 1376.41 168.946L1374.69 167.227C1373.04 165.579 1373.82 162.761 1376.09 162.196L1376.26 162.153C1376.71 162.04 1377.13 161.823 1377.48 161.52L1387.45 152.981L1394.33 147.475C1394.73 147.151 1395.05 146.728 1395.24 146.246L1396.53 143.025C1397.25 141.22 1396.09 139.216 1394.17 138.941L1378.75 136.739C1377.64 136.58 1376.54 137.053 1375.89 137.965L1370.34 145.724C1369.78 146.513 1368.87 146.981 1367.9 146.981H1363.92C1362.72 146.981 1361.64 147.696 1361.17 148.799L1358.23 155.663C1357.75 156.766 1356.67 157.481 1355.47 157.481H1353.05C1352.05 157.481 1351.11 157.982 1350.56 158.817L1345.95 165.725C1345.62 166.218 1345.45 166.797 1345.45 167.389V182.818C1345.45 183.852 1345.98 184.814 1346.86 185.362L1354.53 190.158C1356.07 191.122 1356.41 193.225 1355.24 194.623L1350.57 200.228C1350.17 200.717 1349.61 201.064 1349 201.218L1340.22 203.413C1338.88 203.747 1337.95 204.946 1337.95 206.323V219.318C1337.95 221.366 1335.94 222.812 1334 222.165L1330.4 220.964C1329.48 220.66 1328.48 220.811 1327.7 221.369L1318.65 227.836C1318.51 227.932 1318.39 228.039 1318.27 228.156L1312.99 233.435C1311.13 235.297 1307.95 233.978 1307.95 231.345C1307.95 231.103 1307.98 230.862 1308.03 230.628L1309.18 226.057C1309.35 225.363 1309.27 224.629 1308.95 223.988L1305.15 216.384C1305.01 216.117 1304.92 215.831 1304.87 215.536L1302.1 198.929C1302 198.312 1301.71 197.743 1301.27 197.301L1295.39 191.427C1294.1 190.136 1291.97 190.287 1290.87 191.748L1284.14 200.717C1284.01 200.892 1283.86 201.053 1283.7 201.195L1275.56 208.173C1274.37 209.193 1272.59 209.125 1271.48 208.016L1265.95 202.481L1255.63 190.872C1254.66 189.78 1254.61 188.146 1255.53 187.005L1258.01 183.898C1259.07 182.575 1258.82 180.64 1257.47 179.624L1256.27 178.723C1254.97 177.752 1254.68 175.928 1255.61 174.602L1263.55 163.26C1264.11 162.458 1265.03 161.981 1266.01 161.981H1284.34C1285.05 161.981 1285.75 161.725 1286.29 161.259L1295.95 152.981L1304.75 147.109C1304.88 147.024 1305 146.929 1305.12 146.824L1322.72 130.686C1322.87 130.549 1323.03 130.428 1323.21 130.325L1328.82 126.959C1329.81 126.362 1330.37 125.244 1330.26 124.088L1329.28 114.279C1329.1 112.513 1330.49 110.981 1332.26 110.981H1335.97C1337.17 110.981 1338.25 110.266 1338.73 109.163L1341.67 102.299C1342.14 101.196 1343.22 100.481 1344.42 100.481H1353.65C1354.17 100.481 1354.68 100.617 1355.14 100.876L1363.23 105.503C1364.27 106.096 1365.57 106.016 1366.52 105.298L1375.6 98.4924C1376.44 97.8642 1377.54 97.7181 1378.51 98.1069L1382.38 99.6542C1383.61 100.145 1385.01 99.775 1385.84 98.7429L1388.93 94.8746C1389.81 93.7699 1391.35 93.4327 1392.62 94.0654L1396.84 96.1754C1398.21 96.8644 1399.88 96.1732 1400.37 94.7117C1400.71 93.678 1401.68 92.9808 1402.77 92.9808H1411.7C1412.5 92.9808 1413.26 93.2968 1413.82 93.8594L1422.67 102.708C1423.17 103.207 1423.83 103.514 1424.53 103.575L1457.59 106.45C1457.83 106.47 1458.06 106.518 1458.28 106.593L1466.95 109.481L1481.73 113.916C1481.87 113.959 1482.02 113.991 1482.17 114.013L1498.63 116.364C1500.71 116.662 1501.85 118.953 1500.83 120.791L1496.3 128.938C1495.77 129.89 1494.77 130.481 1493.68 130.481H1482.24C1482.05 130.481 1481.85 130.462 1481.66 130.423C1476.55 129.406 1466.3 127.481 1463.95 127.481C1461.67 127.481 1462.81 134.694 1463.79 138.847C1463.89 139.267 1464.09 139.655 1464.36 139.992L1473.25 151.112C1474.56 152.744 1477.09 152.574 1478.17 150.781L1480 147.73C1480.29 147.241 1480.72 146.845 1481.23 146.59L1495.45 139.481L1512.85 129.328C1513.24 129.099 1513.68 128.963 1514.13 128.928L1531.65 127.581C1532.48 127.517 1533.24 127.112 1533.76 126.464L1538.05 121.107C1538.61 120.395 1539.48 119.981 1540.39 119.981H1546.84C1547.55 119.981 1548.25 119.725 1548.79 119.259L1557.6 111.703C1558.15 111.237 1558.84 110.981 1559.56 110.981H1575.2C1576 110.981 1576.76 111.297 1577.33 111.859L1580.71 115.242C1581.72 116.253 1583.3 116.41 1584.49 115.617L1586.45 114.31C1586.78 114.093 1587.14 113.941 1587.53 113.864L1608.44 109.683C1609.09 109.552 1609.77 109.643 1610.37 109.941L1620.1 114.81C1622.1 115.807 1624.45 114.357 1624.45 112.127V108.744C1624.45 107.404 1625.33 106.226 1626.62 105.868C1630.35 104.831 1635.46 103.481 1636.45 103.481C1637.58 103.48 1648.6 101.699 1654.88 100.658C1655.57 100.543 1656.28 100.674 1656.88 101.027L1672.23 109.978C1673.27 110.586 1674.57 110.51 1675.54 109.787L1677.04 108.659C1678.55 107.529 1678.65 105.306 1677.26 104.039L1664.97 92.8616C1664.05 92.0292 1663.74 90.7199 1664.18 89.5648L1670.21 73.9038C1670.65 72.7453 1671.77 71.9808 1673.01 71.9808H1673.97C1674.9 71.9808 1675.78 72.4134 1676.35 73.1516L1690.45 91.4808L1700.95 109.481L1708.73 125.045C1709.42 126.426 1711.05 127.058 1712.49 126.503L1728.74 120.253C1729.2 120.074 1729.62 119.783 1729.94 119.405L1734.2 114.433C1735.87 112.487 1734.49 109.481 1731.92 109.481H1720.24C1719.41 109.481 1718.63 109.141 1718.06 108.541L1696.68 85.8996C1695.17 84.3054 1695.83 81.6871 1697.91 80.9937L1704.84 78.6814C1706.09 78.265 1707.47 78.7121 1708.23 79.7838L1711.02 83.6868C1712.45 85.682 1715.53 85.2178 1716.31 82.8918L1717.85 78.2623C1718.43 76.5303 1720.41 75.7112 1722.04 76.5277L1730.02 80.5151C1731.9 81.4599 1734.15 80.2075 1734.34 78.1034L1735.24 68.2649C1735.36 66.9166 1736.37 65.8175 1737.71 65.5822L1760.02 61.6451C1760.62 61.5381 1761.18 61.2473 1761.62 60.8121L1769.07 53.3595C1769.63 52.7968 1770.39 52.4808 1771.19 52.4808H1783.95C1784.6 52.4808 1785.23 52.2702 1785.75 51.8808L1795.02 44.9247C1796.15 44.081 1797.71 44.1318 1798.77 45.0469L1806.22 51.4307C1806.99 52.0863 1808.03 52.3143 1809 52.0375L1817.06 49.7347C1817.64 49.5693 1818.15 49.2333 1818.54 48.7707L1824.72 41.3577C1825.19 40.7928 1825.85 40.4205 1826.58 40.3114L1854.44 36.1322C1855.09 36.034 1855.76 36.1551 1856.34 36.4765L1868.36 43.1546ZM1508.07 912.552C1507.67 913.151 1507.5 913.874 1507.58 914.588L1510.35 936.747C1510.41 937.225 1510.33 937.711 1510.12 938.142C1508.91 940.546 1511.91 942.844 1513.92 941.058L1516.94 938.376C1517.58 937.806 1517.95 936.99 1517.95 936.134V910.694C1517.95 910.552 1517.94 910.41 1517.92 910.27L1517.56 907.754C1517.17 905.028 1513.62 904.223 1512.09 906.514L1508.07 912.552ZM1472.95 860.494C1472.95 859.689 1471.93 859.355 1471.47 860.012C1468.5 864.202 1464.91 869.981 1466.95 869.981C1469.27 869.982 1473.65 874.667 1475.75 877.234C1475.88 877.397 1475.99 877.576 1476.09 877.765L1476.23 878.05C1477.54 880.666 1481.43 880.055 1481.88 877.165L1483.13 869.019C1483.32 867.791 1482.73 866.574 1481.66 865.958L1473.37 861.222C1473.11 861.073 1472.95 860.795 1472.95 860.494ZM1491.2 797.766C1491.03 797.909 1490.88 798.069 1490.75 798.244L1487.39 802.723C1486.8 803.511 1486.63 804.538 1486.94 805.472L1490.26 815.429C1490.67 816.654 1491.82 817.481 1493.11 817.481H1500.36C1501.06 817.481 1501.74 817.235 1502.28 816.785L1509.54 810.739C1510.12 810.252 1510.5 809.561 1510.59 808.806L1511.75 799.581C1511.87 798.582 1511.49 797.587 1510.72 796.931L1503.4 790.654C1502.28 789.691 1500.62 789.691 1499.49 790.654L1491.2 797.766ZM1606.45 320.981L1602.72 321.913C1601.38 322.247 1600.45 323.446 1600.45 324.823V328.216C1600.45 329.305 1599.86 330.309 1598.9 330.838L1588.86 336.417C1587.72 337.051 1587.12 338.349 1587.38 339.628L1587.91 342.313C1588.22 343.827 1589.62 344.864 1591.15 344.71L1599.41 343.884C1601.42 343.684 1603.05 345.48 1602.65 347.458L1600.73 357.049C1600.55 357.953 1600.8 358.89 1601.4 359.59L1609.45 368.981L1614.89 375.789C1615.25 376.241 1615.74 376.578 1616.29 376.761L1624.24 379.413C1624.38 379.458 1624.51 379.513 1624.64 379.576L1626.33 380.425C1627.05 380.781 1627.59 381.405 1627.84 382.16L1628.32 383.604C1628.7 384.743 1628.36 385.998 1627.47 386.795L1616.45 396.586C1615.81 397.155 1615.45 397.971 1615.45 398.828V407.218C1615.45 408.557 1616.33 409.734 1617.62 410.102L1625.95 412.481L1639.22 416.906C1639.37 416.956 1639.52 416.994 1639.68 417.019L1659.88 420.387C1662.43 420.812 1664.29 418.029 1662.92 415.838L1659.53 410.41C1659.15 409.81 1659 409.096 1659.1 408.396L1661.61 390.815C1661.81 389.445 1661.04 388.119 1659.76 387.605L1651.9 384.463C1649.73 383.594 1649.34 380.682 1651.22 379.278L1656.94 374.983C1658.1 374.113 1658.48 372.538 1657.83 371.241L1653.58 362.758C1653.18 361.95 1652.43 361.367 1651.55 361.171L1640.18 358.643C1639.7 358.537 1639.25 358.313 1638.88 357.993L1629.32 349.798C1629.07 349.588 1628.86 349.34 1628.7 349.063L1624.62 342.263C1624.5 342.075 1624.41 341.876 1624.34 341.668L1622.34 335.664C1621.84 334.157 1622.6 332.52 1624.07 331.93L1628.95 329.981L1637.63 326.26C1638.73 325.787 1639.45 324.703 1639.45 323.503V318.887C1639.45 317.481 1638.47 316.264 1637.1 315.959L1626.83 313.677C1626.25 313.549 1625.65 313.594 1625.1 313.806L1606.45 320.981ZM1504.8 317.981C1503.66 317.981 1502.63 318.623 1502.12 319.639L1500.78 322.322C1500.27 323.339 1499.23 323.981 1498.09 323.981H1491.79C1490.41 323.981 1489.21 324.918 1488.88 326.253L1488.67 327.07C1488.27 328.678 1489.25 330.307 1490.86 330.708L1492.7 331.17C1495.33 331.826 1495.81 335.344 1493.46 336.685L1490.06 338.629C1489.66 338.86 1489.31 339.182 1489.05 339.57L1488.67 340.138C1487.56 341.806 1485.16 341.935 1483.87 340.394L1479.64 335.315C1479.19 334.776 1478.95 334.096 1478.95 333.395V328.129C1478.95 326.616 1477.82 325.34 1476.32 325.152L1458.32 322.902C1456.53 322.678 1454.95 324.075 1454.95 325.879V330.818C1454.95 332.11 1454.12 333.256 1452.89 333.665L1441.55 337.446C1439.44 338.151 1438.8 340.836 1440.38 342.413L1442.92 344.952C1443.83 345.865 1444.06 347.26 1443.48 348.415L1440.07 355.231C1439.99 355.397 1439.92 355.57 1439.87 355.749L1437.16 365.249C1437.02 365.729 1437 366.236 1437.11 366.724L1439.42 377.132C1439.73 378.504 1440.95 379.481 1442.35 379.481H1453.09C1454.23 379.481 1455.27 378.839 1455.78 377.822L1457.12 375.139C1457.63 374.123 1458.66 373.481 1459.8 373.481H1471.34C1472.34 373.481 1473.28 372.979 1473.84 372.145L1475.06 370.317C1475.61 369.482 1476.55 368.981 1477.55 368.981H1503.62C1504.16 368.981 1504.69 369.129 1505.16 369.408L1511.23 373.053C1511.7 373.333 1512.23 373.481 1512.78 373.481H1522.05C1523.16 373.481 1524.14 374.239 1524.41 375.32C1524.86 377.151 1527.14 377.783 1528.48 376.448L1529.99 374.938C1530.87 374.06 1532.19 373.813 1533.33 374.318L1540.73 377.606C1542.71 378.488 1544.95 377.035 1544.95 374.864V374.389C1544.95 373.797 1545.12 373.218 1545.45 372.725L1550.66 364.913C1550.85 364.627 1550.99 364.31 1551.07 363.977L1551.9 360.686C1552.22 359.382 1551.64 358.02 1550.47 357.353L1541.95 352.481L1533.23 346.672C1533.04 346.545 1532.84 346.44 1532.62 346.359L1522.05 342.394C1521.34 342.129 1520.76 341.604 1520.42 340.927L1516.76 333.614C1516.55 333.198 1516.45 332.738 1516.45 332.273V320.981C1516.45 319.324 1515.1 317.981 1513.45 317.981H1504.8ZM1693.66 335.545C1693.52 335.834 1693.33 336.097 1693.1 336.325L1691.92 337.504C1690.13 339.294 1691.23 342.359 1693.75 342.611L1699.15 343.151C1700.91 343.328 1702.45 341.941 1702.45 340.166V334.835C1702.45 333.699 1701.8 332.66 1700.79 332.152L1699.13 331.322C1697.65 330.581 1695.85 331.182 1695.1 332.664L1693.66 335.545Z" fill="black"/>
<path d="M1652.57 941.977C1652.81 942.92 1652.57 943.919 1651.94 944.657L1644.5 953.336C1644.14 953.757 1643.9 954.271 1643.81 954.82L1639.52 982.022C1639.47 982.326 1639.38 982.621 1639.24 982.896L1635.26 990.847C1635.05 991.264 1634.95 991.723 1634.95 992.189V1006.6C1634.95 1007.48 1634.56 1008.31 1633.9 1008.88L1625.49 1016.08C1624.83 1016.65 1624.45 1017.48 1624.45 1018.36V1037.98C1624.45 1038.92 1624 1039.81 1623.25 1040.38L1613.03 1048.04C1612.65 1048.33 1612.2 1048.52 1611.72 1048.6L1597.94 1050.9C1596.11 1051.2 1594.45 1049.79 1594.45 1047.94V1017.32C1594.45 1017.1 1594.47 1016.87 1594.52 1016.65L1598.95 997.481L1601.81 971.74C1601.9 970.935 1602.31 970.2 1602.95 969.703L1615.45 959.981L1628.8 946.631C1628.9 946.531 1628.99 946.424 1629.07 946.31L1642.02 929.047C1642.3 928.675 1642.66 928.372 1643.08 928.164L1645.1 927.153C1646.82 926.295 1648.89 927.247 1649.35 929.109L1652.57 941.977Z" fill="black"/>
<path d="M2403.55 802.781C2404.11 803.536 2405 803.981 2405.95 803.981H2409.02C2411.14 803.981 2412.59 806.124 2411.8 808.095L2411.13 809.774C2410.71 810.821 2410.91 812.015 2411.66 812.864L2419.74 822.101C2420.48 822.948 2421.63 823.309 2422.72 823.036L2432.26 820.652C2432.71 820.54 2433.13 820.323 2433.48 820.02L2442.6 812.203C2443.15 811.737 2443.84 811.481 2444.56 811.481H2470.45C2471.39 811.481 2472.28 811.925 2472.85 812.681L2480.38 822.731C2480.75 823.219 2481.26 823.584 2481.84 823.777L2493.39 827.63C2494.07 827.856 2494.65 828.318 2495.02 828.932L2498.07 834.024C2498.61 834.928 2499.59 835.481 2500.65 835.481H2508.92C2510.14 835.481 2511.25 836.228 2511.7 837.367L2513.47 841.787C2513.77 842.549 2514.38 843.153 2515.14 843.458L2519.56 845.226C2520.7 845.682 2521.45 846.785 2521.45 848.012V853.55C2521.45 854.777 2522.19 855.88 2523.33 856.336L2533.06 860.226C2534.2 860.682 2534.95 861.785 2534.95 863.012V871.84C2534.95 872.575 2535.22 873.284 2535.7 873.833L2546.66 886.158C2546.85 886.372 2547.07 886.558 2547.31 886.709L2557.54 893.099C2558.41 893.648 2558.95 894.609 2558.95 895.643V897.224C2558.95 899.298 2556.89 900.747 2554.94 900.049L2538.5 894.177C2538.13 894.047 2537.8 893.849 2537.51 893.594L2524.45 881.981L2514.79 873.703C2514.25 873.237 2513.55 872.981 2512.84 872.981H2503.65C2502.59 872.981 2501.61 873.534 2501.07 874.437L2497.65 880.142C2497.51 880.367 2497.41 880.609 2497.34 880.861L2495.07 888.805C2494.7 890.093 2493.52 890.981 2492.18 890.981H2473.8C2472.66 890.981 2471.63 890.339 2471.12 889.322L2465.28 877.639C2464.77 876.623 2463.73 875.981 2462.59 875.981H2455.45C2454.5 875.981 2453.61 876.425 2453.05 877.181L2450.51 880.56C2449.85 881.436 2448.77 881.884 2447.69 881.729L2442.82 881.034C2440.87 880.755 2439.71 878.697 2440.49 876.883L2442.96 871.123C2443.27 870.392 2443.86 869.815 2444.6 869.519L2449.06 867.735C2450.2 867.279 2450.95 866.176 2450.95 864.95V862.518C2450.95 861.553 2450.48 860.647 2449.7 860.083L2444.69 856.479C2443.91 855.915 2443.45 855.009 2443.45 854.044V848.387C2443.45 846.981 2442.47 845.764 2441.1 845.459L2431.6 843.349C2430.58 843.121 2429.74 842.369 2429.41 841.369L2427.74 836.356C2427.28 834.98 2425.9 834.13 2424.47 834.335L2417.37 835.348C2416.77 835.434 2416.15 835.334 2415.61 835.062L2410.64 832.576C2410.51 832.513 2410.38 832.458 2410.24 832.413L2407.77 831.588C2406.66 831.218 2405.86 830.236 2405.73 829.073L2404.59 818.771C2404.5 817.948 2404.07 817.199 2403.41 816.702L2398.76 813.219C2398.55 813.061 2398.32 812.931 2398.08 812.833L2392.02 810.412C2391.33 810.135 2390.56 810.126 2389.86 810.388C2386.96 811.476 2384.51 807.984 2386.53 805.632L2387.27 804.767C2387.71 804.258 2388.3 803.909 2388.96 803.778L2394.56 802.659C2395.14 802.543 2395.67 802.257 2396.09 801.838L2397.5 800.427C2398.79 799.136 2400.93 799.287 2402.02 800.748L2403.55 802.781Z" fill="black"/>
<path d="M2181.15 867.463C2181.96 868.097 2183.03 868.271 2184 867.925L2201.36 861.724C2202.6 861.282 2203.98 861.698 2204.77 862.75L2211.55 871.781C2212.11 872.536 2213 872.981 2213.95 872.981H2244.54C2245.13 872.981 2245.71 873.156 2246.2 873.485L2253.95 878.651C2254.28 878.869 2254.64 879.02 2255.03 879.097L2257.65 879.622C2260.72 880.235 2260.92 884.539 2257.93 885.437L2255.99 886.017C2255.03 886.307 2253.98 886.093 2253.21 885.449L2246.18 879.594C2245.7 879.195 2245.11 878.955 2244.49 878.907L2208.6 876.147C2207.31 876.047 2206.24 875.136 2205.92 873.883L2205.64 872.756C2205.25 871.202 2203.71 870.228 2202.14 870.542L2177.02 875.566C2175.78 875.815 2174.51 875.255 2173.86 874.168L2170.95 869.327C2170.62 868.777 2170.13 868.348 2169.54 868.101L2159.23 863.807C2156.75 862.773 2156.77 859.25 2159.27 858.252L2164.34 856.222C2165.34 855.825 2166.46 855.986 2167.31 856.644L2181.15 867.463Z" fill="black"/>
<path d="M2388.77 868.533C2390.02 869.36 2390.45 870.982 2389.78 872.316L2389.29 873.297C2388.55 874.779 2386.75 875.38 2385.26 874.639L2385.16 874.588C2383.49 873.751 2382.98 871.602 2384.1 870.105L2384.77 869.219C2385.71 867.963 2387.47 867.662 2388.77 868.533Z" fill="black"/>
<path d="M2575.72 848.937C2576.92 850.937 2575.48 853.481 2573.15 853.481H2566.71C2566.53 853.481 2566.36 853.496 2566.19 853.526L2563.66 853.969C2561.04 854.427 2559.47 851.158 2561.47 849.403C2561.78 849.125 2562.16 848.928 2562.57 848.826L2571.79 846.52C2573.07 846.2 2574.41 846.755 2575.09 847.887L2575.72 848.937Z" fill="black"/>
<path d="M2093.95 754.481L2101.45 763.481L2113.2 775.239C2113.37 775.4 2113.51 775.578 2113.63 775.77L2120.43 786.649C2120.76 787.19 2121.27 787.608 2121.86 787.845L2142.08 795.934C2142.94 796.279 2143.6 797.003 2143.85 797.895L2146.07 805.648C2146.31 806.493 2146.91 807.19 2147.71 807.554L2159.01 812.689C2160.91 813.556 2161.37 816.061 2159.89 817.542L2152.08 825.345C2151.37 826.055 2151.06 827.071 2151.26 828.055L2154.43 843.912C2154.88 846.17 2152.73 848.074 2150.54 847.346L2146.78 846.09C2146.56 846.017 2146.35 845.92 2146.15 845.799L2127.74 834.468C2127.22 834.151 2126.81 833.685 2126.57 833.131L2120.95 820.481C2118.95 816.481 2114.35 807.581 2111.95 803.981C2108.95 799.481 2104.45 788.981 2104.45 787.481C2104.45 785.981 2101.45 775.482 2099.95 773.981C2098.76 772.794 2085.74 763.685 2079.16 759.132C2079.02 759.029 2078.88 758.917 2078.76 758.789L2068.52 748.555C2066.71 746.748 2067.85 743.656 2070.39 743.444L2080.56 742.596C2081.44 742.523 2082.31 742.841 2082.93 743.465L2093.95 754.481Z" fill="black"/>
<path d="M2316.94 783.605C2320.17 783.807 2320.84 788.272 2317.81 789.408L2296.47 797.41C2295.52 797.766 2294.81 798.578 2294.59 799.568L2292.39 809.474C2292.12 810.684 2292.63 811.934 2293.66 812.621L2297.53 815.205C2299.22 816.331 2299.33 818.775 2297.74 820.044L2287.42 828.302C2286.52 829.023 2286.11 830.195 2286.37 831.319L2288.42 840.185C2289.07 842.997 2285.76 845.014 2283.56 843.15L2272.88 834.113C2271.76 833.17 2271.49 831.561 2272.23 830.302L2285.47 807.793C2285.78 807.264 2285.92 806.653 2285.87 806.041L2284.65 790.131C2284.53 788.618 2285.57 787.257 2287.05 786.959L2306.56 783.058C2306.82 783.007 2307.08 782.989 2307.34 783.005L2316.94 783.605Z" fill="black"/>
<path d="M2315.81 838.908C2317.21 840.728 2316.13 843.383 2313.86 843.707L2302.24 845.367C2300.16 845.664 2298.43 843.794 2298.89 841.747L2300.95 832.481L2302.16 828.833C2302.92 826.553 2305.92 826.048 2307.39 827.953L2315.81 838.908Z" fill="black"/>
<path d="M2272.72 746.703C2273.45 747.765 2273.42 749.178 2272.65 750.211L2269.57 754.31C2269.49 754.424 2269.4 754.531 2269.3 754.631L2264.81 759.115C2263.98 759.947 2263.71 761.188 2264.12 762.289L2267.95 772.481L2271.88 786.895C2272.22 788.14 2271.72 789.464 2270.65 790.18L2269.28 791.09C2268.45 791.646 2267.95 792.583 2267.95 793.586V804.332C2267.95 805.845 2266.82 807.122 2265.32 807.309L2257.87 808.24C2256.7 808.387 2255.72 809.206 2255.38 810.335L2250.28 826.912C2250.06 827.601 2249.61 828.191 2249 828.574L2239.69 834.39C2238.64 835.048 2237.29 834.99 2236.3 834.246L2226.58 826.959C2226.17 826.645 2225.67 826.447 2225.16 826.382L2204.03 823.741C2202.78 823.585 2201.76 822.665 2201.48 821.438L2197.45 803.981L2194.6 792.595C2194.5 792.19 2194.31 791.81 2194.06 791.481L2187.15 782.606C2185.73 780.778 2186.83 778.096 2189.13 777.79L2205.54 775.602C2206.13 775.523 2206.69 775.268 2207.13 774.871L2219.55 763.829C2219.81 763.599 2220.11 763.415 2220.43 763.286L2241.02 755.05C2241.92 754.693 2242.58 753.927 2242.82 752.993L2245.22 743.37C2245.37 742.79 2245.68 742.267 2246.13 741.868L2257.91 731.261C2259.26 730.051 2261.36 730.297 2262.39 731.783L2272.72 746.703Z" fill="black"/>
<path d="M2383.54 828.775C2385.35 829.684 2385.35 832.277 2383.54 833.186C2382.59 833.661 2381.44 833.475 2380.69 832.724C2379.73 831.761 2379.73 830.2 2380.69 829.237C2381.44 828.487 2382.59 828.301 2383.54 828.775Z" fill="black"/>
<path d="M2348.67 827.092C2350.43 827.974 2350.25 830.546 2348.38 831.17L2345.09 832.265C2344.68 832.403 2344.23 832.371 2343.83 832.175C2342.74 831.626 2342.6 830.115 2343.58 829.378L2346.35 827.301C2347.02 826.798 2347.92 826.717 2348.67 827.092Z" fill="black"/>
<path d="M2097.55 810.255C2097.26 812.262 2095.02 813.328 2093.29 812.285C2091.5 811.214 2091.44 808.651 2093.17 807.497C2095.21 806.138 2097.9 807.83 2097.55 810.255Z" fill="black"/>
<path d="M2313.23 811.623C2312.28 813.144 2310.22 813.497 2308.79 812.406C2306.09 810.338 2302.68 807.849 2300.95 806.981C2298.6 805.809 2306.56 803.587 2311.13 802.552C2311.34 802.504 2311.56 802.481 2311.78 802.481H2313.53C2315.89 802.481 2317.33 805.073 2316.08 807.071L2313.23 811.623Z" fill="black"/>
<path d="M391.76 799.638C394.028 800.772 393.954 804.033 391.637 805.062L385.334 807.864C384.462 808.252 383.457 808.201 382.627 807.727L379.517 805.95C377.228 804.642 377.618 801.229 380.143 800.472L387.307 798.323C388.039 798.103 388.827 798.171 389.51 798.513L391.76 799.638Z" fill="black"/>
<path d="M2360.82 791.067C2360.9 791.662 2360.8 792.268 2360.53 792.805L2360.12 793.639C2359.12 795.634 2356.37 795.882 2355.03 794.097L2354.25 793.054C2353.74 792.371 2353.54 791.502 2353.71 790.665L2354.41 787.15C2355.08 783.827 2359.88 783.983 2360.33 787.342L2360.82 791.067Z" fill="black"/>
<path d="M1969.23 758.797C1969.37 758.919 1969.51 759.054 1969.62 759.201L1974.79 765.659C1975.21 766.191 1975.45 766.852 1975.45 767.533V779.522C1975.45 781.347 1973.83 782.75 1972.02 782.492L1957.02 780.349C1955.54 780.138 1954.45 778.872 1954.45 777.379V769.822C1954.45 769.595 1954.47 769.369 1954.52 769.148L1957.83 754.808C1958.34 752.612 1961 751.738 1962.71 753.205L1969.23 758.797Z" fill="black"/>
<path d="M2072.43 765.962C2072.76 766.294 2072.95 766.744 2072.95 767.214C2072.95 768.365 2071.86 769.21 2070.75 768.931L2069.77 768.686C2068.39 768.342 2067.77 766.74 2068.56 765.561C2069.28 764.485 2070.8 764.334 2071.71 765.249L2072.43 765.962Z" fill="black"/>
<path d="M2339.96 761.587C2339.08 762.692 2337.54 763.029 2336.28 762.396L2336.17 762.342C2334.34 761.426 2333.94 758.985 2335.39 757.538L2336.07 756.859C2336.63 756.297 2337.4 755.981 2338.19 755.981C2340.71 755.981 2342.12 758.891 2340.55 760.855L2339.96 761.587Z" fill="black"/>
<path d="M2341.22 709.207C2341.36 710.3 2340.89 711.38 2339.99 712.02L2331.36 718.187C2331.09 718.381 2330.85 718.62 2330.65 718.894L2326.91 724.177C2325.01 726.856 2320.81 724.979 2321.54 721.778L2321.73 720.915C2321.87 720.307 2321.82 719.672 2321.58 719.096L2319.01 712.932C2318.52 711.762 2318.82 710.411 2319.76 709.559L2326.14 703.759C2326.34 703.574 2326.57 703.418 2326.82 703.296L2331.48 700.962C2332.11 700.651 2332.6 700.133 2332.88 699.497L2334.07 696.837C2335.3 694.059 2339.41 694.667 2339.78 697.683L2341.22 709.207Z" fill="black"/>
<path fill-rule="evenodd" clip-rule="evenodd" d="M512.121 78.8125C512.655 79.2449 513.321 79.4808 514.008 79.4808H559.446C561.103 79.4808 562.446 80.8239 562.446 82.4808V97.1267C562.446 98.263 561.804 99.3018 560.788 99.8099L537.813 111.297C534.981 112.713 535.989 116.981 539.154 116.981H602.946C604.603 116.981 605.946 115.638 605.946 113.981V96.1381C605.946 93.6375 608.826 92.2344 610.795 93.7756L638.697 115.612C639.736 116.425 641.185 116.464 642.266 115.707L655.446 106.481L707.522 70.3168C708.653 69.5316 710.173 69.6167 711.209 70.5232L720.153 78.3489C720.954 79.05 722.067 79.2739 723.077 78.9372L748.998 70.297C750.94 69.6495 752.946 71.0954 752.946 73.1431V95.9808C752.946 97.6376 754.289 98.9808 755.946 98.9808H782.946C784.603 98.9808 785.946 100.324 785.946 101.981V116.044C785.946 116.654 786.132 117.25 786.48 117.751L796.187 131.773C797.565 133.763 796.141 136.481 793.721 136.481H767.345C766.759 136.481 766.185 136.309 765.696 135.987L711.409 100.272C710.256 99.5137 708.735 99.6396 707.722 100.577L669.809 135.682C669.254 136.196 668.526 136.481 667.771 136.481H647.35C644.727 136.481 643.367 139.61 645.157 141.528L655.195 152.283C657.173 154.402 655.293 157.817 652.444 157.278L607.036 148.687C606.333 148.554 605.605 148.677 604.984 149.033L538.427 187.269C536.85 188.174 536.435 190.263 537.546 191.702L575.734 241.206C575.875 241.389 575.994 241.587 576.09 241.797L588.713 269.567C589.687 271.709 592.635 271.948 593.94 269.99L620.056 230.817C620.612 229.982 621.549 229.481 622.552 229.481H652.446C654.103 229.481 655.446 228.138 655.446 226.481V196.167C655.446 195.405 655.736 194.671 656.258 194.115L677.057 171.929C677.624 171.324 678.417 170.981 679.246 170.981H707.313C708.59 170.981 709.727 171.789 710.147 172.995L720.379 202.412C720.954 204.066 722.818 204.877 724.42 204.172L755.875 190.332C757.513 189.611 759.413 190.475 759.947 192.183L766.105 211.887C766.325 212.592 766.277 213.352 765.972 214.024L760.002 227.158C759.393 228.497 759.845 230.08 761.069 230.896L784.236 246.341C785.267 247.028 785.769 248.278 785.5 249.487L780.468 272.132C780.163 273.504 778.946 274.481 777.54 274.481H753.777C753.233 274.481 752.7 274.629 752.234 274.908L731.858 287.133C730.979 287.661 729.891 287.703 728.973 287.244L704.874 275.195C703.981 274.748 702.925 274.775 702.056 275.266L689.441 282.397C687.774 283.339 687.405 285.581 688.682 287.009L692.246 290.993C694.234 293.214 692.117 296.66 689.238 295.892L678.269 292.967C677.155 292.67 675.969 293.038 675.218 293.913L670.237 299.725C668.881 301.307 669.511 303.755 671.461 304.486L701.5 315.751C702.67 316.19 703.446 317.309 703.446 318.56V327.665C703.446 329.029 702.526 330.222 701.206 330.567L641.053 346.322C640.653 346.427 640.279 346.613 639.954 346.869L611.946 368.981L590.946 382.481L570.6 399.92C570.173 400.286 569.857 400.766 569.689 401.303L562.689 423.704C562.53 424.212 562.238 424.67 561.844 425.029L513.727 468.771C513.222 469.23 512.888 469.848 512.782 470.523L504.278 524.378C504.079 525.637 503.106 526.633 501.852 526.862L490.541 528.918C488.856 529.224 487.257 528.06 487.031 526.363L481.793 487.084C481.595 485.594 480.323 484.481 478.82 484.481H472.446C473.143 484.482 473.199 485.495 473.025 486.638C472.813 488.032 471.447 488.874 470.044 488.723L433.766 484.836C431.993 484.646 430.446 486.036 430.446 487.819V495.71C430.446 497.639 428.651 499.067 426.772 498.633L411.279 495.058C411.058 495.006 410.832 494.981 410.605 494.981H385.552C384.549 494.981 383.612 495.482 383.056 496.317L381.69 498.365C381.217 499.075 380.463 499.55 379.618 499.67L361.817 502.213C360.674 502.377 359.726 503.182 359.38 504.284L343.584 554.542C343.493 554.833 343.446 555.136 343.446 555.441V586.481C343.446 587.624 366.157 599.76 379.11 606.524C380.219 607.103 381.562 606.926 382.492 606.089L410.187 581.164C410.679 580.721 411.304 580.453 411.964 580.402L425.861 579.333C428.021 579.167 429.64 581.275 428.922 583.319L412.35 630.486C411.664 632.437 413.112 634.481 415.18 634.481H454.446C456.103 634.481 457.446 635.824 457.446 637.481V684.865C457.446 685.271 457.529 685.673 457.689 686.047L465.801 704.975C466.192 705.889 467.09 706.481 468.084 706.481C470.998 706.481 471.531 710.633 468.711 711.368L455.12 714.914C453.831 715.25 452.476 714.696 451.79 713.554L430.581 678.205C430.491 678.056 430.389 677.915 430.275 677.783L411.497 656.117C411.137 655.701 410.669 655.392 410.145 655.224L374.067 643.679C373.658 643.549 373.282 643.331 372.964 643.042L358.212 629.631C357.427 628.918 356.325 628.672 355.311 628.984L338.764 634.075C337.928 634.333 337.02 634.212 336.28 633.744L280.446 598.481L270.105 593.31C269.088 592.802 268.446 591.763 268.446 590.627V570.648C268.446 570.208 268.35 569.775 268.164 569.377L225.388 477.926C225.102 477.314 224.617 476.816 224.013 476.514L214.288 471.652C212.293 470.654 209.946 472.105 209.946 474.335V494.229C209.946 494.722 210.068 495.208 210.301 495.644L238.061 547.543C239.575 550.374 236.184 553.284 233.615 551.358L220.968 541.872C220.624 541.614 220.34 541.286 220.134 540.908L202.75 509.037C202.55 508.67 202.428 508.266 202.394 507.849L200.946 490.481L198.057 448.582C197.988 447.582 197.423 446.682 196.552 446.184L178.458 435.844C177.523 435.31 176.946 434.316 176.946 433.24V367.223C176.946 366.428 177.262 365.665 177.825 365.102L200.946 341.981L228.418 305.833C229.056 304.994 229.207 303.882 228.815 302.904L220.833 282.948C220.583 282.322 220.55 281.629 220.742 280.982L231.99 243.02C232.275 242.058 232.06 241.018 231.418 240.247L227.854 235.97C226.476 234.317 227.235 231.794 229.296 231.176L235.689 229.258C237.726 228.647 238.498 226.17 237.17 224.51L227.946 212.981L215.124 195.884C214.687 195.302 214.054 194.898 213.342 194.748L186.819 189.164C186.249 189.045 185.727 188.762 185.316 188.35L177.825 180.859C177.262 180.297 176.499 179.981 175.704 179.981H150.546C150.15 179.981 149.758 180.059 149.392 180.212L114.5 194.75C114.134 194.902 113.742 194.981 113.346 194.981H103.113C102.363 194.981 101.639 195.262 101.086 195.769L84.5237 210.951C84.145 211.298 83.6836 211.543 83.1836 211.66L58.6777 217.426C58.5236 217.463 58.3726 217.511 58.2261 217.571L2.67879 240.36C1.16277 240.982 -0.529098 240.116 0.157324 238.628C4.09464 230.094 34 215.741 53.4851 207.531C55.6502 206.619 56.0023 203.689 54.1077 202.299L38.694 190.996C37.2362 189.927 37.0419 187.827 38.3016 186.53C48.4903 176.045 66.4041 158.981 71.9462 158.981C76.7225 158.98 93.2148 154.547 105.546 150.972C108.292 150.177 108.425 146.378 105.754 145.36L97.6803 142.284C94.5674 141.098 95.4172 136.481 98.7483 136.481H125.946C127.603 136.481 128.946 135.138 128.946 133.481V119.981C128.946 118.324 130.289 116.981 131.946 116.981H149.368C149.75 116.981 150.128 116.908 150.483 116.766L216.684 90.2857C217.183 90.0861 217.726 90.0242 218.257 90.1065L323.606 106.428C323.832 106.463 324.061 106.472 324.289 106.455L423.992 99.0147C424.293 98.9922 424.596 99.0153 424.89 99.0832L486.437 113.286C489.687 114.036 491.551 109.717 488.776 107.867L476.782 99.8714C475.948 99.315 475.446 98.3783 475.446 97.3752V82.4808C475.446 80.8239 474.103 79.4808 472.446 79.4808H451.341C448.333 79.4808 447.197 75.5452 449.743 73.9421L479.629 55.1249C480.716 54.4407 482.117 54.5239 483.115 55.3318L512.121 78.8125ZM545.289 355.481C543.912 355.481 542.725 356.424 542.226 357.707C541.435 359.744 540.139 362.134 538.446 362.981C536.729 363.839 532.35 364.749 528.715 365.38C526.8 365.713 525.642 367.72 526.364 369.525L526.953 370.997C527.519 372.412 529.057 373.178 530.527 372.777L544.446 368.981L554.135 365.348C555.478 364.844 556.282 363.459 555.988 362.056C555.356 359.048 554.371 355.483 553.446 355.481H545.289ZM512.137 295.722C511.684 295.929 511.289 296.246 510.989 296.644L504.619 305.088C504.185 305.664 503.558 306.064 502.853 306.215L498.355 307.179C495.118 307.872 495.225 312.527 498.49 313.071L508.076 314.669C509.218 314.859 510.149 315.69 510.467 316.804L512.314 323.268C512.687 324.573 512.137 325.966 510.973 326.665L506.398 329.41C505.784 329.778 505.322 330.354 505.095 331.034L502.967 337.418C502.643 338.391 501.843 339.124 500.86 339.419C496.647 340.684 490.446 343.311 490.446 346.481V362.981C490.446 364.638 491.789 365.981 493.446 365.981H496.686C498.246 365.981 499.546 364.785 499.675 363.23L500.855 349.076C500.914 348.369 501.222 347.705 501.723 347.204L512.068 336.859C512.63 336.297 513.393 335.981 514.189 335.981H523.704C524.499 335.981 525.262 335.665 525.825 335.102L529.031 331.896C530.089 330.838 531.804 330.838 532.862 331.896C533.535 332.569 533.805 333.546 533.574 334.469L531.753 341.754C531.322 343.48 532.478 345.2 534.239 345.451L549.806 347.675C551.084 347.858 552.336 347.202 552.913 346.047L556.09 339.693C556.323 339.226 556.675 338.828 557.109 338.539L563.066 334.567C564.399 333.679 564.798 331.901 563.975 330.528L558.423 321.276C557.419 319.602 555.109 319.318 553.729 320.698L548.269 326.158C547.022 327.405 544.972 327.312 543.843 325.957L539.346 320.56C538.776 319.876 537.931 319.481 537.041 319.481H530.946C528.063 319.481 526.84 315.811 529.146 314.081L531.47 312.338C532.825 311.322 533.071 309.386 532.013 308.064L528.184 303.278C528.026 303.081 527.844 302.904 527.642 302.752L517.372 295.05C516.493 294.391 515.324 294.265 514.325 294.722L512.137 295.722ZM227.946 281.437C227.946 281.796 228.011 282.153 228.137 282.49L231.802 292.262C232.197 293.317 233.151 294.061 234.27 294.189L245.524 295.475C247.763 295.731 249.474 293.518 248.663 291.415L244.675 281.073C244.524 280.683 244.293 280.328 243.997 280.032L239.153 275.188C238.694 274.729 238.099 274.431 237.456 274.339L231.37 273.47C229.563 273.212 227.946 274.614 227.946 276.44V281.437Z" fill="black"/>
<path d="M2320 674.386C2320.26 675.634 2321.29 676.587 2322.56 676.745L2323.52 676.864C2326.38 677.222 2327.14 681.016 2324.63 682.446L2324.17 682.712C2322.9 683.435 2322.38 684.992 2322.95 686.331L2323.6 687.836C2324.49 689.92 2322.19 691.928 2320.25 690.761C2319.46 690.286 2318.46 690.321 2317.7 690.851L2310.87 695.631C2308.56 697.251 2305.49 695.066 2306.27 692.349L2306.52 691.47C2306.79 690.536 2306.59 689.53 2305.98 688.771L2303.76 686.001C2302.42 684.328 2303.22 681.831 2305.28 681.242L2310.18 679.843C2310.99 679.612 2311.66 679.052 2312.04 678.3L2314.37 673.63C2315.64 671.094 2319.4 671.613 2320 674.386Z" fill="black"/>
<path d="M2272.7 694.297C2272.54 694.416 2272.34 694.481 2272.13 694.481C2271.09 694.481 2270.76 693.076 2271.69 692.61C2272.78 692.065 2273.69 693.589 2272.7 694.297Z" fill="black"/>
<path d="M2286.8 673.263C2288.01 674.235 2288.28 675.979 2287.42 677.273C2286.58 678.532 2284.93 678.973 2283.58 678.296L2280.16 676.588C2278.49 675.751 2277.98 673.602 2279.1 672.105L2279.59 671.457C2280.61 670.102 2282.54 669.856 2283.86 670.914L2286.8 673.263Z" fill="black"/>
<path d="M1691.38 663.353C1693.8 664.323 1693.84 667.739 1691.44 668.768L1688.86 669.876C1687.97 670.256 1686.96 670.187 1686.13 669.692L1685.88 669.538C1683.62 668.188 1684.07 664.802 1686.59 664.081L1689.48 663.256C1690.11 663.078 1690.77 663.112 1691.38 663.353Z" fill="black"/>
<path d="M2288.57 617.419C2288.82 617.789 2289.14 618.099 2289.52 618.328L2293.15 620.504C2294.83 621.508 2295.11 623.818 2293.73 625.198L2291.65 627.28C2290.9 628.025 2290.6 629.106 2290.86 630.129L2294.5 644.707C2294.78 645.796 2295.63 646.642 2296.73 646.9L2308.41 649.649C2311.47 650.369 2311.5 654.717 2308.45 655.479L2297.25 658.279C2296.73 658.411 2296.24 658.684 2295.86 659.068L2294.07 660.859C2292.18 662.749 2288.95 661.411 2288.95 658.738V656.723C2288.95 655.928 2288.63 655.165 2288.07 654.602L2280.83 647.359C2280.26 646.797 2279.95 646.034 2279.95 645.238V618.468C2279.95 618.145 2280 617.825 2280.1 617.519L2281.01 614.8C2281.8 612.432 2284.96 612.007 2286.35 614.084L2288.57 617.419Z" fill="black"/>
<path d="M521.928 606.277C524.254 606.742 524.934 609.74 523.036 611.163C522.35 611.678 521.461 611.842 520.636 611.606L519.876 611.389C517.312 610.657 517.233 607.052 519.763 606.209C520.211 606.059 520.69 606.029 521.152 606.122L521.928 606.277Z" fill="black"/>
<path d="M2191.33 592.908C2193.8 593.341 2194.68 596.439 2192.81 598.11C2188.37 602.078 2183.31 606.616 2182.45 607.481C2181.46 608.463 2175.05 603.477 2170.29 599.442C2168.82 598.198 2168.94 595.915 2170.51 594.795L2175.71 591.076C2176.36 590.609 2177.18 590.423 2177.97 590.563L2191.33 592.908Z" fill="black"/>
<path d="M578.662 592.339C578.851 592.433 579.029 592.547 579.194 592.679L587.268 599.138C589.482 600.91 588.23 604.481 585.394 604.481H566.182C563.585 604.481 562.215 601.404 563.952 599.474L571.418 591.179C572.321 590.176 573.782 589.899 574.99 590.502L578.662 592.339Z" fill="black"/>
<path d="M524.749 578.882C524.88 578.948 525.007 579.023 525.127 579.107L532.149 584.023C534.552 585.705 533.362 589.481 530.429 589.481H518.353C516.947 589.481 515.729 588.504 515.424 587.132L512.988 576.167C512.96 576.043 512.946 575.917 512.946 575.79C512.946 574.499 514.305 573.66 515.459 574.237L524.749 578.882Z" fill="black"/>
<path d="M501.424 564.459C503.13 566.165 502.227 569.084 499.856 569.529L482.799 572.727C481.94 572.888 481.054 572.667 480.372 572.121L476.342 568.898C475.18 567.968 473.447 568.479 472.976 569.892C472.326 571.842 469.567 571.842 468.916 569.892L467.566 565.84C466.98 564.082 468.113 562.218 469.944 561.928L493.437 558.219C494.385 558.069 495.348 558.382 496.026 559.061L501.424 564.459Z" fill="black"/>
<path d="M2278.45 555.95C2278.45 557.176 2277.7 558.279 2276.56 558.735L2265.71 563.077C2264.39 563.604 2262.88 563.136 2262.1 561.955L2261.41 560.929C2260.81 560.034 2260.74 558.886 2261.22 557.924L2270.12 540.139C2270.63 539.123 2271.66 538.481 2272.8 538.481H2275.45C2277.1 538.481 2278.45 539.824 2278.45 541.481V555.95Z" fill="black"/>
<path d="M574.775 551.723C576.274 553.973 574.244 556.936 571.605 556.349C569.145 555.803 568.405 552.613 570.372 551.04C571.746 549.941 573.799 550.259 574.775 551.723Z" fill="black"/>
<path d="M2292.74 543.2C2295.16 545.013 2293.48 548.851 2290.51 548.31C2288.41 547.929 2287.45 545.476 2288.73 543.773C2289.68 542.507 2291.47 542.25 2292.74 543.2Z" fill="black"/>
<path d="M2387.23 379.124C2387.7 379.358 2388.1 379.709 2388.39 380.144L2395.92 391.438C2396.55 392.384 2396.59 393.604 2396.03 394.591L2392.08 401.491C2391.41 402.666 2391.61 404.144 2392.57 405.101L2397.43 409.961C2398.07 410.606 2398.39 411.508 2398.29 412.414L2397.08 423.3C2396.99 424.058 2397.2 424.821 2397.66 425.431L2401.45 430.491C2403.08 432.656 2401.23 435.695 2398.56 435.25L2389.04 433.662C2388.33 433.545 2387.61 433.682 2387 434.049L2381.16 437.553C2380.69 437.833 2380.16 437.981 2379.62 437.981H2374.05C2372.56 437.981 2371.29 439.079 2371.08 440.556L2370.27 446.232C2370.08 447.562 2369.03 448.603 2367.69 448.781L2347.82 451.431C2347.57 451.464 2347.33 451.527 2347.1 451.62L2341.54 453.845C2340.55 454.239 2339.85 455.125 2339.69 456.174L2337.71 469.034C2337.36 471.273 2334.76 472.337 2332.94 470.978L2325.25 465.209C2325.05 465.058 2324.87 464.881 2324.71 464.683L2320.99 460.036C2319.89 458.662 2320.21 456.642 2321.67 455.666L2327.19 451.985C2327.68 451.656 2328.26 451.481 2328.85 451.481H2332.45C2334.1 451.481 2335.45 450.138 2335.45 448.481V434.186C2335.45 432.874 2336.3 431.714 2337.55 431.323L2358.57 424.754C2359.14 424.576 2359.65 424.231 2360.02 423.765L2364.85 417.728C2365.24 417.242 2365.77 416.889 2366.37 416.718L2375.32 414.161C2375.73 414.042 2376.12 413.835 2376.44 413.554L2384.24 406.868C2385.47 405.816 2385.65 403.979 2384.63 402.716L2380.93 398.091C2380.61 397.691 2380.4 397.215 2380.32 396.71L2377.77 381.394C2377.57 380.23 2378.08 379.06 2379.06 378.405L2380.5 377.446C2381.39 376.849 2382.54 376.778 2383.5 377.259L2387.23 379.124Z" fill="black"/>
<path d="M1488.84 441.24C1489.1 443.032 1487.23 444.375 1485.61 443.565C1484.44 442.98 1484.02 441.523 1484.69 440.402C1485.78 438.59 1488.54 439.147 1488.84 441.24Z" fill="black"/>
<path d="M1340.51 425.548C1342.09 427.125 1341.46 429.811 1339.34 430.516L1332.5 432.797C1331.27 433.205 1329.92 432.784 1329.15 431.751L1327.99 430.199C1326.9 428.756 1327.33 426.69 1328.9 425.795L1334.46 422.618C1335.63 421.946 1337.11 422.144 1338.07 423.101L1340.51 425.548Z" fill="black"/>
<path d="M1330.45 411.165C1330.45 411.892 1329.86 412.481 1329.13 412.481C1327.58 412.481 1327.31 410.266 1328.81 409.889C1329.64 409.682 1330.45 410.31 1330.45 411.165Z" fill="black"/>
<path d="M1412.95 397.481C1414.32 398.859 1413.77 401.206 1411.92 401.822C1409.87 402.506 1407.92 400.556 1408.6 398.506C1409.22 396.656 1411.57 396.102 1412.95 397.481Z" fill="black"/>
<path d="M1237.17 391.422C1236.52 393.038 1234.6 393.71 1233.09 392.846C1230.68 391.47 1231.43 387.815 1234.19 387.509C1236.34 387.27 1237.97 389.412 1237.17 391.422Z" fill="black"/>
<path d="M1292.76 369.971C1292.88 370.308 1292.95 370.665 1292.95 371.025V387.332C1292.95 388.845 1291.82 390.122 1290.32 390.309L1282.67 391.265C1281.61 391.398 1280.55 390.949 1279.9 390.088L1277.8 387.281C1277 386.214 1277 384.747 1277.8 383.681L1280.44 380.154C1280.77 379.714 1281.22 379.373 1281.73 379.168L1285.66 377.595C1287.2 376.98 1287.95 375.234 1287.33 373.695L1285.83 369.933C1285.58 369.316 1285.55 368.634 1285.73 367.995L1285.95 367.228C1286.74 364.447 1290.62 364.29 1291.64 366.999L1292.76 369.971Z" fill="black"/>
<path d="M2410.85 346.329C2411.49 347.289 2411.36 348.568 2410.54 349.385L2409.98 349.947C2409.35 350.581 2408.41 350.802 2407.56 350.518C2406.03 350.008 2405.45 348.147 2406.42 346.855L2406.89 346.219C2407.9 344.882 2409.92 344.939 2410.85 346.329Z" fill="black"/>
<path d="M2411.71 332.172C2413.29 332.566 2414 334.403 2413.1 335.755C2412.44 336.741 2411.15 337.083 2410.09 336.553L2408.64 335.828C2407.32 335.165 2407.03 333.398 2408.08 332.35C2408.62 331.811 2409.4 331.594 2410.14 331.779L2411.71 332.172Z" fill="black"/>
<path d="M735.135 324.751C737.179 326.59 735.878 329.981 733.128 329.981H722.552C720.156 329.981 718.727 327.31 720.056 325.317L724.022 319.367C725.036 317.845 727.165 317.578 728.525 318.802L735.135 324.751Z" fill="black"/>
<path d="M779.417 295.564C779.765 295.875 780.181 296.101 780.632 296.224L785.481 297.54C787.273 298.027 788.171 300.031 787.341 301.692C786.584 303.205 787.257 305.043 788.812 305.709L792.874 307.45C794.68 308.224 795.267 310.497 794.06 312.049L788.314 319.436C787.113 320.98 784.779 320.98 783.578 319.436L776.203 309.954C775.718 309.331 775.007 308.923 774.223 308.821L749.71 305.624C746.867 305.253 746.117 301.499 748.606 300.077C756.864 295.36 766.631 289.879 769.887 288.378C770.558 288.069 771.25 288.253 771.801 288.746L779.417 295.564Z" fill="black"/>
<path d="M1194.74 212.156C1195.19 212.68 1195.84 212.981 1196.53 212.981C1198.51 212.981 1199.61 215.271 1198.38 216.818L1195.45 220.481L1192.96 224.627C1191.94 226.319 1192.81 228.513 1194.71 229.055L1200.7 230.767C1201.19 230.907 1201.64 231.17 1202 231.53L1209.57 239.102C1210.13 239.665 1210.45 240.428 1210.45 241.223V243.481C1210.45 244.13 1210.66 244.761 1211.05 245.281L1219.32 256.31C1219.4 256.424 1219.5 256.531 1219.6 256.632L1221.36 258.393C1222.7 259.732 1222.48 261.961 1220.9 263.011L1216.47 265.968C1215.53 266.59 1215.02 267.681 1215.15 268.795L1216.01 276.589C1216.23 278.551 1214.53 280.186 1212.58 279.885L1196.95 277.481L1185 276.154C1184.03 276.045 1183.06 276.421 1182.41 277.16L1176.9 283.465C1175.53 285.032 1172.95 284.062 1172.95 281.981C1172.95 280.481 1175.95 277.481 1177.45 275.981C1178.49 274.935 1181.13 273.054 1182.79 271.926C1183.22 271.632 1183.57 271.235 1183.8 270.768L1186.13 266.114C1186.34 265.698 1186.45 265.238 1186.45 264.773V255.335C1186.45 254.199 1187.09 253.16 1188.1 252.652L1190.51 251.448C1191.67 250.87 1192.32 249.619 1192.14 248.34L1191.09 240.971C1191 240.328 1190.7 239.733 1190.24 239.274L1183.66 232.691C1183.52 232.551 1183.39 232.398 1183.28 232.234L1180.95 228.737C1180.62 228.244 1180.45 227.665 1180.45 227.072V218.981C1180.45 217.324 1181.79 215.981 1183.45 215.981H1184.59C1186.38 215.981 1187.77 214.427 1187.58 212.649L1187.52 212.154C1187.2 209.22 1190.86 207.629 1192.78 209.871L1194.74 212.156Z" fill="black"/>
<path d="M1157.95 238.481C1157.95 237.436 1165.53 238.59 1170.79 239.566C1172.08 239.805 1173.04 240.863 1173.19 242.161L1174.17 250.961C1174.33 252.416 1173.42 253.775 1172.01 254.177L1165.47 256.046C1164.52 256.318 1163.76 257.042 1163.45 257.982L1161.63 263.429C1161.22 264.654 1160.08 265.481 1158.78 265.481H1153.64C1152.59 265.481 1151.61 266.034 1151.07 266.937L1148.45 271.305C1147.84 272.324 1146.69 272.886 1145.51 272.738L1142.5 272.362C1139.86 272.033 1138.92 268.7 1140.99 267.043L1142.12 266.141C1142.66 265.714 1143.03 265.117 1143.18 264.449L1145.72 253.012C1145.87 252.345 1146.24 251.748 1146.77 251.321L1153.15 246.219C1153.35 246.061 1153.52 245.88 1153.67 245.677C1155.23 243.574 1157.95 239.623 1157.95 238.481Z" fill="black"/>
<path d="M209.143 242.799C211.1 243.973 210.66 246.927 208.446 247.481C206.232 248.034 204.454 245.635 205.628 243.677C206.356 242.464 207.93 242.071 209.143 242.799Z" fill="black"/>
<path d="M221.296 217.873C223.035 219.115 222.954 221.726 221.142 222.858L218.13 224.741C216.016 226.062 213.306 224.379 213.554 221.899L213.931 218.133C214.16 215.839 216.784 214.65 218.66 215.99L221.296 217.873Z" fill="black"/>
<path d="M1176.65 203.715C1177.17 203.887 1177.61 204.226 1177.91 204.679C1179 206.304 1177.83 208.481 1175.88 208.481H1175.46C1174.07 208.481 1172.95 207.356 1172.95 205.968C1172.95 204.252 1174.63 203.041 1176.25 203.583L1176.65 203.715Z" fill="black"/>
<path d="M1103.95 4.48078L1144.59 11.8708C1147.43 12.3865 1147.98 16.2164 1145.4 17.5057L1120.34 30.032C1118.78 30.8135 1118.21 32.7602 1119.11 34.2587L1124.52 43.2739C1125.51 44.9196 1124.72 47.0565 1122.9 47.6634L1106.67 53.0724C1105.15 53.5804 1104.29 55.1983 1104.74 56.7427L1106.26 62.0868C1106.66 63.4749 1106.01 64.9486 1104.72 65.5942L1093.6 71.1516C1092.59 71.6598 1091.95 72.6986 1091.95 73.8349V90.765C1091.95 92.0821 1091.09 93.2451 1089.83 93.6324L1014.26 116.885C1014.05 116.949 1013.85 117.034 1013.66 117.141L980.133 136.092C979.683 136.347 979.174 136.481 978.657 136.481H969.835C969.255 136.481 968.687 136.649 968.201 136.965L938.946 155.981L904.349 184.812C903.487 185.53 902.297 185.708 901.264 185.272L875.469 174.411C874.809 174.134 874.27 173.629 873.95 172.988L866.192 157.473C865.728 156.545 865.777 155.443 866.321 154.559L876.603 137.85C877.13 136.995 877.193 135.933 876.772 135.021L869.54 119.35C868.913 117.992 869.383 116.379 870.641 115.57L888.068 104.366C888.927 103.814 889.446 102.864 889.446 101.843V84.3349C889.446 82.1047 887.099 80.6542 885.105 81.6516L883.514 82.447C880.841 83.7832 878.071 80.8179 879.586 78.2427L887.887 64.1311C888.742 62.678 888.232 60.8062 886.758 59.9875L863.633 47.1403C862.879 46.7211 861.98 46.6472 861.167 46.9375L842.725 53.524C841.912 53.8144 841.014 53.7405 840.259 53.3213L822.153 43.2623C819.649 41.8713 820.332 38.0979 823.165 37.673L843.896 34.5633C844.26 34.5087 844.61 34.3878 844.93 34.2065L888.66 9.42634C889.173 9.13575 889.76 9.00266 890.348 9.04368L953.65 13.4601C953.847 13.4738 954.045 13.4681 954.241 13.4429L1058.61 0.0244924C1058.83 -0.00455503 1059.06 -0.00777678 1059.29 0.0148886L1103.95 4.48078Z" fill="black"/>
<path d="M766.964 151.347C769.257 153.41 767.317 157.174 764.306 156.505L752.883 153.967C750.782 153.5 748.887 155.332 749.284 157.448L751.349 168.464C751.874 171.264 748.569 173.15 746.425 171.275L717.913 146.327C717.296 145.787 716.484 145.523 715.666 145.597L711.116 146.011C707.547 146.335 706.517 141.258 709.931 140.166L721.446 136.481L743.989 132.254C744.907 132.082 745.854 132.348 746.548 132.973L766.964 151.347Z" fill="black"/>
<path d="M1128.86 137.875C1131.09 138.579 1131.69 141.453 1129.93 142.993L1122.62 149.395C1122.18 149.777 1121.64 150.025 1121.06 150.107L1101.43 152.912C1101.11 152.958 1100.8 153.054 1100.51 153.198L1091.07 157.918C1089.83 158.541 1088.32 158.225 1087.43 157.155L1075.45 142.782C1073.59 140.549 1076.2 137.398 1078.74 138.809C1079.49 139.229 1080.41 139.249 1081.18 138.862L1088.68 135.114C1088.86 135.025 1089.04 134.955 1089.23 134.903L1104.59 130.713C1105.15 130.561 1105.74 130.573 1106.29 130.746L1128.86 137.875Z" fill="black"/>
<path d="M1528.05 113.582C1529.13 114.663 1529.22 116.384 1528.27 117.578L1525.46 121.087C1524.58 122.192 1523.04 122.529 1521.78 121.896L1521.33 121.675C1519.6 120.81 1519.13 118.557 1520.37 117.071L1523.34 113.504C1524.47 112.149 1526.52 112.056 1527.77 113.304L1528.05 113.582Z" fill="black"/>
<path d="M1552.55 103.696C1553.25 105.08 1552.4 106.738 1550.87 106.993C1548.79 107.34 1547.38 104.935 1548.7 103.288C1549.75 101.977 1551.8 102.194 1552.55 103.696Z" fill="black"/>
<path d="M1629.51 50.4161C1629.15 50.7805 1628.66 51.0025 1628.15 51.042L1609.94 52.4427C1609.61 52.4679 1609.29 52.5469 1608.99 52.6764L1590 60.8166C1589.03 61.2291 1588.36 62.1134 1588.21 63.1498L1587.05 71.2566C1586.98 71.7324 1586.8 72.1849 1586.52 72.576L1581.29 79.9053C1580.29 81.3048 1580.67 83.2566 1582.12 84.18L1587.25 87.4498C1589.79 89.0611 1588.65 92.9808 1585.64 92.9808H1582.82C1582.57 92.9808 1582.33 92.9507 1582.09 92.8912L1576.45 91.4808L1559.15 86.538C1557.27 86.0013 1556.4 83.841 1557.37 82.1503L1571.23 58.2243C1571.68 57.438 1572.47 56.9004 1573.37 56.7623L1590.79 54.0817C1591.22 54.0152 1591.63 53.8552 1592 53.6127L1599.75 48.4436C1600.21 48.1408 1600.73 47.9677 1601.28 47.9429L1627.89 46.7335C1629.86 46.644 1630.9 49.0226 1629.51 50.4161Z" fill="black"/>
<path d="M681.346 76.2306C682.625 77.8295 681.962 80.2118 680.041 80.9197L672.793 83.5898C669.6 84.7663 667.225 80.5581 669.882 78.4321L675.604 73.8549C676.897 72.8198 678.785 73.0296 679.82 74.3234L681.346 76.2306Z" fill="black"/>
<path d="M613.065 82.8619C612.365 83.5621 611.364 83.8717 610.391 83.6892L595.504 80.8979C592.818 80.3942 592.149 76.8538 594.467 75.4053L599.217 72.4368C599.693 72.1388 600.244 71.9808 600.807 71.9808H616.704C619.376 71.9808 620.715 75.2122 618.825 77.1021L613.065 82.8619Z" fill="black"/>
<path d="M654.589 69.1442C656.621 69.8296 656.04 72.8471 653.898 72.7281C651.759 72.6092 651.512 69.5501 653.605 69.0904C653.932 69.0187 654.272 69.0373 654.589 69.1442Z" fill="black"/>
<path d="M551.635 44.7276C554.109 45.4148 554.632 48.69 552.496 50.1143L536.93 60.4917C536.015 61.1013 534.841 61.1622 533.868 60.6504L513.338 49.8447C510.975 48.6012 511.292 45.1228 513.84 44.3265L530.101 39.2448C530.653 39.0725 531.242 39.063 531.799 39.2177L551.635 44.7276Z" fill="black"/>
<path d="M576.305 55.5703C579.737 56.4284 579.115 61.4808 575.577 61.4808H569.689C567.016 61.4808 565.678 58.2494 567.568 56.3595L568.745 55.1818C569.49 54.4367 570.572 54.1372 571.594 54.3927L576.305 55.5703Z" fill="black"/>
<path d="M641.348 48.5281C644.12 48.8541 644.984 52.4558 642.662 54.0037L637.121 57.6979C636.377 58.1937 635.451 58.3321 634.594 58.0752L618.313 53.1908C615.27 52.2779 615.548 47.8805 618.682 47.3582L623.526 46.5508C623.805 46.5044 624.089 46.4975 624.37 46.5306L641.348 48.5281Z" fill="black"/>
<path d="M699.8 50.5795C703.457 50.9335 703.395 56.2894 699.73 56.5576L686.016 57.5611C682.864 57.7916 681.544 53.6222 684.253 51.9966L687.598 49.9896C688.149 49.6591 688.791 49.5142 689.431 49.576L699.8 50.5795Z" fill="black"/>
<path d="M661.446 28.4808L673.559 30.3442C676.232 30.7555 677.039 34.216 674.823 35.7671L667.601 40.8226C666.601 41.5228 665.276 41.5469 664.251 40.8836L651.914 32.901C649.213 31.1535 650.783 26.9575 653.968 27.4124L661.446 28.4808Z" fill="black"/>
<path d="M807.312 25.3872C807.069 25.4493 806.819 25.4808 806.569 25.4808H785.946C784.289 25.4808 782.946 26.8239 782.946 28.4808V29.258C782.946 30.5784 782.083 31.7435 780.82 32.128L748.873 41.8508C748.59 41.937 748.296 41.9808 748 41.9808H725.69C722.833 41.9808 721.593 38.3664 723.848 36.6127L724.379 36.2001C726.536 34.5224 725.509 31.0694 722.786 30.8424L701.741 29.0887C699.067 28.8658 698.008 25.5124 700.07 23.7944L711.446 14.3145C712.084 13.7826 712.914 13.5393 713.738 13.6423L747.839 17.9048C748.24 17.9549 748.646 17.9236 749.035 17.8126L779.542 9.09621C779.81 9.01963 780.088 8.98078 780.366 8.98078H847.614C851.142 8.98078 851.776 14.0128 848.358 14.8872L807.312 25.3872Z" fill="black"/>
<path d="M1385.14 22.5949C1384.7 23.4637 1383.87 24.0665 1382.91 24.2106L1355 28.3974C1354.63 28.4525 1354.28 28.5753 1353.96 28.7595L1344.17 34.3537C1344.02 34.4383 1343.87 34.5101 1343.71 34.5683L1328.79 39.9924C1327.94 40.3013 1327 40.2106 1326.22 39.7455L1312.84 31.7147C1312.58 31.5599 1312.3 31.4506 1312 31.3916C1309.12 30.816 1309.22 26.6702 1312.12 26.2239L1316.4 25.5653C1316.76 25.5094 1317.11 25.3873 1317.43 25.2049L1325.01 20.8701C1326.38 20.0878 1328.12 20.4988 1329 21.8107L1329.13 22C1329.9 23.1601 1331.37 23.6344 1332.68 23.1449L1341.94 19.6718C1342.27 19.5455 1342.63 19.4808 1342.99 19.4808H1361.95L1382.3 18.2837C1384.59 18.149 1386.17 20.5428 1385.14 22.5949Z" fill="black"/>
<path d="M1369.33 37.2506C1370.07 38.7347 1368.99 40.4808 1367.33 40.4808C1365.35 40.4808 1364.35 38.0766 1365.76 36.6705C1366.83 35.5932 1368.65 35.888 1369.33 37.2506Z" fill="black"/>
<path d="M577.085 34.5567C579.478 34.7162 579.566 38.202 577.184 38.4822C575.514 38.6786 574.381 36.8292 575.313 35.4303C575.705 34.8429 576.381 34.5097 577.085 34.5567Z" fill="black"/>
<path d="M1770.66 18.922C1771.17 19.2854 1771.78 19.4808 1772.41 19.4808H1796.24C1796.7 19.4808 1797.16 19.5892 1797.58 19.7975L1805.39 23.7011C1805.76 23.8856 1806.15 23.9917 1806.57 24.0133C1816.26 24.5228 1834.77 25.4808 1835.95 25.4808C1836.84 25.4819 1836.12 27.1455 1835.29 28.6142C1834.79 29.4861 1833.84 29.9808 1832.84 29.9808H1801.55C1800.55 29.9808 1799.61 29.4795 1799.06 28.6449L1797.8 26.7599C1797.26 25.9568 1796.37 25.4604 1795.41 25.4259L1757.2 24.0613C1755.87 24.0136 1754.72 23.0877 1754.4 21.7909L1753.91 19.8484C1753.63 18.7104 1754.03 17.511 1754.95 16.7782L1759.17 13.3981C1760.22 12.5596 1761.7 12.5193 1762.79 13.2995L1770.66 18.922Z" fill="black"/>
<path d="M1551.18 13.1353C1553.55 14.7166 1552.58 18.4321 1549.74 18.6508C1546.71 18.8837 1545.28 14.9562 1547.75 13.1905C1548.77 12.466 1550.14 12.4439 1551.18 13.1353Z" fill="black"/>
<path d="M1513.28 14.2809C1515.01 15.3203 1514.28 17.9808 1512.26 17.9808C1510.48 17.9808 1509.59 15.8353 1510.85 14.5805C1511.49 13.9342 1512.5 13.8107 1513.28 14.2809Z" fill="black"/>
</svg>
